<svg width="912" height="800" viewBox="0 0 912 800" fill="none" xmlns="http://www.w3.org/2000/svg">
<g clip-path="url(#clip0_4041_20354)">
<path d="M21.9432 -288L-415.461 1344.41M29.6698 -285.929L-407.734 1346.49M37.3964 -283.859L-400.008 1348.56M45.1229 -281.788L-392.281 1350.63M52.8495 -279.718L-384.555 1352.7M60.5839 -277.647L-376.82 1354.77M68.3104 -275.577L-369.094 1356.84M76.037 -273.506L-361.367 1358.91M83.7635 -271.436L-353.641 1360.98M91.4901 -269.365L-345.914 1363.05M99.2167 -267.294L-338.188 1365.12M106.943 -265.224L-330.461 1367.19M114.67 -263.153L-322.734 1369.26M122.396 -261.083L-315.008 1371.33M130.131 -259.012L-307.273 1373.4M137.857 -256.942L-299.547 1375.47M145.584 -254.871L-291.82 1377.54M153.31 -252.801L-284.094 1379.61M161.037 -250.73L-276.367 1381.68M168.764 -248.66L-268.641 1383.76M176.49 -246.589L-260.914 1385.83M184.217 -244.519L-253.188 1387.9M191.943 -242.448L-245.461 1389.97M199.67 -240.377L-237.734 1392.04M207.404 -238.307L-230 1394.11M215.131 -236.236L-222.273 1396.18M222.857 -234.166L-214.547 1398.25M230.584 -232.095L-206.82 1400.32M238.31 -230.024L-199.094 1402.39M246.037 -227.954L-191.367 1404.46M253.764 -225.883L-183.641 1406.53M261.49 -223.813L-175.914 1408.6M269.217 -221.742L-168.188 1410.67M276.951 -219.672L-160.453 1412.74M284.678 -217.601L-152.727 1414.81M292.404 -215.531L-145 1416.88M300.131 -213.46L-137.273 1418.95M307.857 -211.39L-129.547 1421.03M315.584 -209.319L-121.82 1423.1M323.31 -207.249L-114.094 1425.17M331.037 -205.178L-106.367 1427.24M338.764 -203.107L-98.6406 1429.31M346.498 -201.037L-90.9062 1431.38M354.224 -198.966L-83.1797 1433.45M361.951 -196.896L-75.4531 1435.52M369.678 -194.825L-67.7266 1437.59M377.404 -192.755L-60 1439.66M385.131 -190.684L-52.2734 1441.73M392.857 -188.614L-44.5469 1443.8M400.584 -186.543L-36.8203 1445.87M408.31 -184.472L-29.0938 1447.94M416.045 -182.402L-21.3594 1450.01M423.771 -180.331L-13.6328 1452.08M431.498 -178.261L-5.90625 1454.15M439.224 -176.19L1.82031 1456.22M446.951 -174.12L9.54688 1458.3M454.678 -172.049L17.2734 1460.37M462.404 -169.979L25 1462.44M470.131 -167.908L32.7266 1464.51M477.857 -165.837L40.4531 1466.58M485.584 -163.767L48.1797 1468.65M493.318 -161.696L55.9141 1470.72M501.045 -159.626L63.6406 1472.79M508.771 -157.555L71.3672 1474.86M516.498 -155.485L79.0938 1476.93M524.224 -153.414L86.8203 1479M531.951 -151.344L94.5469 1481.07M539.678 -149.273L102.273 1483.14M547.404 -147.203L110 1485.21M555.131 -145.132L117.727 1487.28M562.865 -143.062L125.461 1489.35M570.592 -140.991L133.188 1491.42M578.318 -138.92L140.914 1493.49M586.045 -136.85L148.641 1495.57M593.771 -134.779L156.367 1497.64M601.498 -132.708L164.094 1499.71M609.224 -130.638L171.82 1501.78M616.951 -128.567L179.547 1503.85M624.678 -126.497L187.273 1505.92M632.412 -124.426L195.008 1507.99M640.139 -122.356L202.734 1510.06M647.865 -120.285L210.461 1512.13M655.592 -118.215L218.188 1514.2M663.318 -116.144L225.914 1516.27M671.045 -114.074L233.641 1518.34M678.771 -112.003L241.367 1520.41M686.498 -109.933L249.094 1522.48M694.224 -107.862L256.82 1524.55M701.959 -105.792L264.555 1526.62M709.685 -103.721L272.281 1528.69M717.412 -101.65L280.008 1530.76M725.139 -99.5796L287.734 1532.84M732.865 -97.5093L295.461 1534.91M740.592 -95.4385L303.188 1536.98M748.318 -93.3682L310.914 1539.05M756.045 -91.2976L318.641 1541.12M763.771 -89.2271L326.367 1543.19M771.498 -87.1562L334.094 1545.26M779.232 -85.0859L341.828 1547.33M786.959 -83.0156L349.555 1549.4M794.685 -80.9448L357.281 1551.47M802.412 -78.874L365.008 1553.54M810.139 -76.8037L372.734 1555.61M817.865 -74.7334L380.461 1557.68M825.592 -72.6626L388.188 1559.75M833.318 -70.5918L395.914 1561.82M841.045 -68.5215L403.641 1563.89M848.779 -66.4512L411.375 1565.96M856.506 -64.3804L419.102 1568.03M864.232 -62.3096L426.828 1570.11M871.959 -60.2393L434.555 1572.18M879.685 -58.1689L442.281 1574.25M887.412 -56.0981L450.008 1576.32M895.139 -54.0273L457.734 1578.39M902.865 -51.957L465.461 1580.46M910.592 -49.8867L473.188 1582.53M918.326 -47.8159L480.922 1584.6M926.053 -45.7451L488.648 1586.67M933.779 -43.6748L496.375 1588.74M941.506 -41.6045L504.102 1590.81M949.232 -39.5337L511.828 1592.88M956.959 -37.4629L519.555 1594.95M964.685 -35.3926L527.281 1597.02M972.412 -33.3223L535.008 1599.09M980.139 -31.2515L542.734 1601.16M987.873 -29.1812L550.469 1603.23M995.599 -27.1104L558.195 1605.3M1003.33 -25.04L565.922 1607.37M1011.05 -22.9692L573.648 1609.45M1018.78 -20.8989L581.375 1611.52M1026.51 -18.8281L589.102 1613.59M1034.23 -16.7578L596.828 1615.66M1041.96 -14.687L604.555 1617.73M1049.69 -12.6167L612.281 1619.8M1057.41 -10.5459L620.008 1621.87M1065.15 -8.47559L627.742 1623.94M1072.87 -6.40479L635.469 1626.01M1080.6 -4.33447L643.195 1628.08M1088.33 -2.26367L650.922 1630.15M1096.05 -0.193359L658.648 1632.22M1103.78 1.87744L666.375 1634.29M1111.51 3.94775L674.102 1636.36M1119.23 6.01855L681.828 1638.43M1126.96 8.08887L689.555 1640.5M1134.69 10.1597L697.289 1642.57M1142.42 12.23L705.016 1644.64M1150.15 14.3008L712.742 1646.72M1157.87 16.3711L720.469 1648.79M1165.6 18.4419L728.195 1650.86M1173.33 20.5122L735.922 1652.93M1181.05 22.583L743.648 1655M1188.78 24.6533L751.375 1657.07M1196.51 26.7236L759.102 1659.14M1204.24 28.7944L766.836 1661.21M1211.97 30.8652L774.562 1663.28M1219.69 32.9355L782.289 1665.35M1227.42 35.0059L790.016 1667.42M1235.15 37.0767L797.742 1669.49M1242.87 39.1475L805.469 1671.56M1250.6 41.2178L813.195 1673.63M1258.33 43.2881L820.922 1675.7M1266.05 45.3589L828.648 1677.77M1273.79 47.4297L836.383 1679.84M1281.51 49.5L844.109 1681.91M1289.24 51.5703L851.836 1683.98M1296.97 53.6411L859.562 1686.06M1304.69 55.7119L867.289 1688.13M1312.42 57.7822L875.016 1690.2M1320.15 59.8525L882.742 1692.27M1327.87 61.9233L890.469 1694.34M1335.6 63.9941L898.195 1696.41M1343.33 66.0645L905.922 1698.48M1351.06 68.1348L913.656 1700.55M1358.79 70.2056L921.383 1702.62M1366.51 72.2764L929.109 1704.69M1374.24 74.3467L936.836 1706.76M1381.97 76.417L944.562 1708.83M1389.69 78.4878L952.289 1710.9M1397.42 80.5586L960.016 1712.97M1405.15 82.6289L967.742 1715.04M1412.87 84.6992L975.469 1717.11M1420.61 86.77L983.203 1719.18M1428.33 88.8403L990.93 1721.26M1436.06 90.9111L998.656 1723.33M1443.79 92.9814L1006.38 1725.4M1451.51 95.0522L1014.11 1727.47M1459.24 97.1226L1021.84 1729.54M1466.97 99.1934L1029.56 1731.61M1474.69 101.264L1037.29 1733.68M1482.42 103.334L1045.02 1735.75M1490.15 105.405L1052.75 1737.82M1497.88 107.476L1060.48 1739.89M1505.61 109.546L1068.2 1741.96M1513.33 111.617L1075.93 1744.03M1521.06 113.687L1083.66 1746.1M1528.79 115.758L1091.38 1748.17M1536.51 117.828L1099.11 1750.24M1544.24 119.899L1106.84 1752.31M1551.97 121.969L1114.56 1754.38M1559.7 124.04L1122.3 1756.45M1567.43 126.11L1130.02 1758.53M1575.15 128.181L1137.75 1760.6M1582.88 130.251L1145.48 1762.67M1590.61 132.322L1153.2 1764.74M1598.33 134.393L1160.93 1766.81M1606.06 136.463L1168.66 1768.88M1613.79 138.534L1176.38 1770.95M1621.51 140.604L1184.11 1773.02M1629.24 142.675L1191.84 1775.09M1636.97 144.746L1199.57 1777.16M1644.7 146.816L1207.3 1779.23M1652.43 148.887L1215.02 1781.3M1660.15 150.957L1222.75 1783.37M1667.88 153.027L1230.48 1785.44M1675.61 155.098L1238.2 1787.51M1683.33 157.169L1245.93 1789.58M1691.06 159.239L1253.66 1791.65M1698.79 161.31L1261.38 1793.72M1706.52 163.38L1269.12 1795.79M1714.25 165.451L1276.84 1797.87M1721.97 167.521L1284.57 1799.94M1729.7 169.592L1292.3 1802.01M1737.43 171.663L1300.02 1804.08M1745.15 173.733L1307.75 1806.15M1752.88 175.804L1315.48 1808.22M1760.61 177.874L1323.2 1810.29M1768.33 179.945L1330.93 1812.36M1776.07 182.016L1338.66 1814.43M1783.79 184.086L1346.39 1816.5M1791.52 186.156L1354.12 1818.57M1799.25 188.227L1361.84 1820.64M1806.97 190.298L1369.57 1822.71M1814.7 192.368L1377.3 1824.78M1822.43 194.438L1385.02 1826.85M1830.15 196.509L1392.75 1828.92M1837.88 198.58L1400.48 1830.99M1845.62 200.65L1408.21 1833.06M1853.34 202.721L1415.94 1835.14M1861.07 204.792L1423.66 1837.21" stroke="#A4ABB5"/>
<path d="M732.768 770.825L729.386 782.715L733.167 797.604L744.218 806.02L743.685 815.061L735.03 820.03L733.424 831.145L721.034 847.631L716.511 845.259L715.979 837.786L701.223 826.345L698.905 809.999L701.157 786.386L704.796 775.561L700.302 770.041L698.516 758.87L710.069 741.45L711.76 748.128L718.925 744.99L724.597 754.48L730.973 758.085L732.768 770.825Z" fill="#E6EAEE" stroke="#A4ABB5"/>
<path d="M636.57 539.144L634.546 555.06L619.543 555.135L624.712 563.532L615.866 588.256L610.782 594.691L587.485 595.635L574.041 604.247L552.035 601.314L513.944 591.497L507.996 578.196L481.668 584.847L478.561 592.104L462.427 586.687L448.831 585.65L436.773 578.673L440.849 569.267L439.823 562.411L447.862 560.282L461.344 571.004L465.135 560.814L488.632 562.467L507.673 555.518L520.453 556.704L528.757 564.634L531.237 558.059L527.464 532.653L537.033 527.665L546.43 509.442L566.221 522.182L581.205 505.977L590.583 502.997L611.267 515.121L623.781 513.066L636.057 520.538L633.918 525.535L636.57 539.144Z" fill="#E6EAEE" stroke="#A4ABB5"/>
<path d="M690.549 662.93L700.203 662.837L693.533 678.967L706.379 692.978L702.493 709.987L696.222 711.575L691.243 714.862L682.578 723.203L678.673 742.809L655.099 729.331L645.038 714.368L634.89 706.4L622.643 692.885L616.866 681.592L603.82 664.462L609.388 649.134L618.956 657.634L624.724 649.956L637.17 649.134L660.079 655.28L678.492 654.766L690.549 662.93Z" fill="#E6EAEE" stroke="#A4ABB5"/>
<path d="M272.541 408.871L292.048 412.159L316.732 403.463L333.597 421.733L348.239 431.41L345.218 459.132L338.272 460.673L335.384 483.37L312.077 464.942L298.414 468.099L279.81 448.885L267.429 432.372L255.049 431.699L251.191 417.109L272.541 408.871Z" fill="#E6EAEE" stroke="#A4ABB5"/>
<path d="M787.817 685.838L795.484 700.763L805.803 698.111L826.279 703.752L865.396 705.658L878.612 696.429L909.977 687.986L929.36 701.175L945.027 704.966L931.203 719.874L921.473 745.364L930.062 765.492L907.126 760.775L879.99 771.825L879.705 789.189L855.486 792.467L836.721 780.315L815.39 789.88L795.684 788.871L793.793 765.772L780.453 754.48L784.833 749.492L781.945 745.28L786.42 733.978L796.577 722.816L783.636 707.302L781.242 694.085L787.817 685.838Z" fill="#E6EAEE" stroke="#A4ABB5"/>
<path d="M809.848 298.367L835.597 298.666L864.519 281.881L870.704 256.438L892.548 241.848L890.04 221.234L906.24 213.435L934.858 195.417L962.906 207.149L966.688 218.694L980.674 213.155L1006.72 224.205L1009.32 245.762L1003.62 258.035L1020.31 287.486L1031.16 295.602L1029.56 303.616L1047.52 311.378L1055.19 323.091L1044.83 332.637L1023.34 331.124L1018.2 335.187L1024.47 349.571L1031.01 377.004L1008.14 379.526L999.933 388.819L998.223 409.975L987.629 405.931L963.581 407.939L956.597 398.132L946.611 405.445L936.587 399.383L915.608 398.542L885.878 388.418L858.97 385.102L838.323 386.045L823.729 397.487L810.988 399.122L810.484 380.32L802.266 360.546L818.237 351.766L818.399 334.505L811.007 317.889L809.848 298.367Z" fill="#E6EAEE" stroke="#A4ABB5"/>
<path d="M439.807 562.411L440.834 569.267L436.758 578.673L448.815 585.65L462.411 586.687L460.302 602.286L448.558 608.674L428.843 603.929L423.075 619.154L410.391 620.35L405.773 614.381L390.837 627.122L377.991 628.906L366.523 620.873L357.382 604.331L344.66 610.253L345.05 593.085L364.527 571.574L363.672 561.767L375.815 565.326L383.122 558.722L405.783 558.993L411.256 550.559L439.807 562.411Z" fill="#E6EAEE" stroke="#A4ABB5"/>
<path d="M636.048 520.539L623.773 513.067L611.259 515.121L590.575 502.998L581.197 505.977L566.213 522.183L546.422 509.442L531.38 492.294L517.784 482.645L514.962 465.599L510.297 453.494L529.661 444.583L539.552 434.327L558.688 426.313L565.367 418.411L572.389 423.184L584.275 418.85L596.912 432.198L616.827 435.793L615.164 447.105L629.635 455.558L633.606 444.994L651.887 449.58L654.405 462.348L674.215 464.814L686.473 484.709L678.529 484.756L674.406 491.985L668.287 493.722L666.548 502.811L661.446 504.698L660.724 508.396L651.631 512.497L639.83 511.833L636.048 520.539Z" fill="#E6EAEE" stroke="#A4ABB5"/>
<path d="M448.539 250.25L449.015 267.763L475.942 278.243L475.657 294.093L502.736 285.725L517.719 273.451L547.801 291.123L560.371 305.255L566.604 327.607L559.174 339.226L568.847 354.628L575.441 377.503L573.36 392.102L584.277 418.853L572.391 423.187L565.369 418.414L558.689 426.316L539.554 434.33L529.663 444.586L510.299 453.496L514.964 465.602L517.786 482.648L531.382 492.296L546.424 509.445L537.027 527.668L527.458 532.656L531.23 558.062L528.751 564.638L520.447 556.708L507.667 555.521L488.626 562.471L465.129 560.817L461.338 571.008L447.855 560.285L439.817 562.414L411.265 550.562L405.793 558.996L383.132 558.725L386.514 530.937L399.987 503.85L361.601 496.509L349.031 486.02L350.532 468.319L345.211 459.138L348.233 431.416L343.758 387.609L359.768 387.591L366.514 371.609L373.155 332.146L368.177 317.36L373.383 308.038L395.645 305.638L400.586 315.352L418.676 293.561L412.586 276.814L411.36 251.174L431.494 257.171L448.539 250.25Z" fill="white" stroke="#A4ABB5"/>
<path d="M522.276 221.476L506.285 258.566L478.408 232.778L474.693 213.592L513.772 198.125L522.276 221.476ZM474.911 181.77L468.403 199.526L460.469 194.435L441.286 227.939L448.526 250.253L431.48 257.175L411.347 251.178L400.534 225.744L399.727 177.921L404.164 165.078L411.803 150.694L435.271 147.705L444.621 134.358L466.056 120.6L465.153 145.594L457.267 161.249L460.46 174.596L474.911 181.77Z" fill="#E6EAEE" stroke="#A4ABB5"/>
<path d="M831.929 117.492L835.018 88.3126L825.222 94.5893L808.319 76.8427L806 47.766L839.692 33.4939L873.251 26.0029L902.155 34.5214L929.652 32.9989L933.662 41.9656L914.706 71.2199L922.602 117.567L911.191 133.063L889.223 132.978L866.296 114.839L854.619 108.805L831.929 117.492Z" fill="#E6EAEE" stroke="#A4ABB5"/>
<path d="M-56.4645 769.933L-55.1246 744.835L-66.0039 729.405L-28.3212 703.485L4.27824 709.995L40.0513 709.771L68.4034 715.908L90.5134 714.021L133.574 715.217L144.197 729.134L193.233 745.302L202.915 737.634L232.892 753.652L263.772 749.076L265.197 769.531L239.952 792.751L205.813 800.074L203.438 811.675L187.067 830.664L176.805 858.274L187.19 877.459L171.779 892.329L166.021 913.83L145.907 920.387L127.037 945.513L93.2307 946.008L67.8333 945.391L51.149 956.843L40.9728 969.041L27.9367 966.37L18.0743 955.451L10.5208 936.761L-14.3445 931.699L-16.5679 920.854L-6.6959 908.507L-3.03776 899.512L-12.2257 889.639L-4.87147 867.689L-15.5417 847.467L-4.03551 844.674L-2.96179 828.599L1.36124 823.593L1.70339 796.74L14.0172 787.343L6.56806 769.839L-8.95731 768.606L-13.5178 773.034L-29.2522 773.071L-35.9222 755.875L-46.8015 761.012L-56.4645 769.933Z" fill="#E6EAEE" stroke="#A4ABB5"/>
<path d="M945.926 -551.383L942.04 -500.907L982.839 -454.299L958.259 -403.132L989.243 -328.811L971.305 -274.982L995.286 -229.635L984.397 -190.919L1023.84 -151.166L1013.81 -122.164L989.063 -89.9214L932.025 -20.7465L883.682 -16.5341L836.831 2.78186L793.485 13.7942L778.064 -14.8341L752.268 -32.2913L758.197 -85.793L745.256 -136.306L757.96 -169.735L782.112 -206.555L843.064 -272.124L860.841 -285.07L858.076 -311.568L821.02 -341.691L812.032 -366.91L811.329 -470.775L769.741 -518.906L734.234 -554.418L750.206 -573.921L779.813 -535.13L814.598 -538.717L843.196 -521.26L868.603 -553.382L881.668 -608.069L923.028 -633.989L957.214 -603.614L945.926 -551.383Z" fill="#E6EAEE" stroke="#A4ABB5"/>
<path d="M438.905 760.392L430.106 787.413L418.011 780.324L411.845 756.73L417.223 743.588L434.382 729.998L438.905 760.392ZM279.803 448.89L298.398 468.103L312.07 464.946L335.377 483.375L341.335 486.868L349.021 486.018L361.592 496.507L399.977 503.858L386.514 530.936L383.131 558.724L375.815 565.327L363.673 561.768L364.528 571.576L345.04 593.087L344.651 610.254L357.373 604.333L366.523 620.874L365.421 631.466L373.259 645.458L364.024 656.741L370.894 685.127L385.336 689.741L382.286 705.47L358.152 725.767L305.609 716.062L266.815 727.682L263.765 749.09L232.885 753.667L202.908 737.638L193.217 745.307L144.18 729.148L133.557 715.222L147.334 693.561L152.408 619.987L124.911 580.16L105.262 560.676L64.5482 545.74L61.8594 517.103L96.4065 508.482L141.139 518.672L132.692 473.418L157.843 490.688L219.868 459.174L227.868 425.502L251.166 417.114L255.023 431.704L267.404 432.386L279.803 448.89Z" fill="#E6EAEE" stroke="#A4ABB5"/>
<path d="M33.3935 269.655L19.1129 300.357L-1.02052 291.203L-17.4961 291.81L-12.0042 267.796L-17.4961 243.474L4.84162 241.587L33.3935 269.655ZM104.17 75.7302L75.6938 129.241L102.83 122.554L132.018 122.806L125.073 162.203L101.12 204.562L128.664 207.532L130.783 212.426L154.508 266.479L172.742 273.709L189.141 324.231L196.733 341.426L229.009 349.665L225.769 377.06L212.201 389.492L222.843 411.227L198.88 432.971L163.24 432.589L117.89 443.909L105.462 435.811L87.8464 455.033L63.1997 450.391L44.4819 465.962L30.315 457.836L69.3849 414.534L93.2336 405.511L93.0245 405.473L51.4177 398.478L43.8831 381.674L71.7222 368.476L57.1282 345.321L62.1924 316.777L101.785 320.747H101.832L105.756 295.126L87.9128 267.553L87.5138 266.918L55.1614 258.96L48.8145 246.65L58.4963 226.147L49.736 213.389L35.389 235.226L33.8307 190.421L20.3766 166.257L30.0491 116.23L50.7433 75.9637L72.0168 79.9332L104.17 75.7302Z" fill="#E6EAEE" stroke="#A4ABB5"/>
<path d="M815.593 976.826L830.159 987.624L850.892 985.802L870.712 988.072L870.075 993.63L884.593 989.8L881.258 999.206L842.892 1001.91L843.157 996.656L810.653 990.435L815.593 976.826ZM892.964 781.071L884.717 802.787L878.389 806.654L862.16 805.683L848.26 802.413L815.992 811.371L834.464 830.631L820.933 836.179L806.092 836.216L792.002 818.619L787.004 826.129L792.952 846.453L806.282 862.304L796.239 869.664L811.081 885.076L824.269 894.724L824.668 913.405L811.765 902.701L800.021 904.653L807.879 921.457L799.165 923.231L789.664 916.749L801.066 953.662L795.526 953.793L791.289 941.996L785.845 941.763L783.374 954.073L779.061 951.28L780.03 944.378L774.7 934.617H768.647L769.768 942.491L767.393 944.985L761.54 939.941L757.901 930.405L762.832 925.09L759.44 918.178L755.563 914.61L751.545 913.732L746.879 904.924L752.419 900.076L755.811 895.556L761.141 896.508L763.526 892.679L769.132 891.156L775.621 895.462L780.875 897.041L784.543 891.231L775.631 890.446L770.357 888.634L758.48 891.25L746.898 891.698L736.513 876.371L734.794 873.998L736.38 868.002L722.859 857.213L721.055 847.593L733.444 831.107L735.041 819.992L743.697 815.014L744.228 805.972L761.654 802.918L771.811 795.352L786.254 796.025L790.634 789.981L795.707 788.823L815.413 789.823L836.744 780.258L855.519 792.41L879.728 789.131L880.023 771.768L892.964 781.071Z" fill="#E6EAEE" stroke="#A4ABB5"/>
<path d="M685.864 623.966L692.334 638.443L700.8 649.035L690.548 662.934L678.491 654.77L660.077 655.284L637.169 649.138L624.722 649.96L618.955 657.638L609.387 649.138L603.819 664.465L616.864 681.596L622.641 692.888L634.889 706.404L645.036 714.371L655.098 729.334L678.671 742.812L675.745 748.837L650.699 735.695L635.249 722.852L610.888 712.185L588.483 685.537L593.862 682.81L581.709 667.417L581.215 654.976L564.084 649.138L555.922 665.073L548.055 652.725L548.653 639.835L549.604 639.237L568.169 640.507L573.044 634.212L582.108 640.302L592.56 641.021L592.464 630.597L601.719 626.768L604.313 611.571L625.52 601.521L633.986 606.191L653.901 622.359L675.906 629.56L685.864 623.966Z" fill="#E6EAEE" stroke="#A4ABB5"/>
<path d="M615.859 588.259L624.705 563.535L619.536 555.138L634.539 555.063L636.563 539.147L650.122 549.132L659.946 553.373L682.303 548.609L684.45 540.772L695.035 539.614L708.004 533.534L710.893 536.046L723.397 531.152L729.649 521.886L738.381 519.476L766.913 531.441L772.595 527.425L787.379 538.101L789.241 548.562L772.965 556.707L760.367 582.841L744.252 608.63L722.893 615.747L706.266 614.076L685.856 623.967L675.899 629.562L653.894 622.36L633.978 606.192L625.513 601.522L620.335 588.679L615.859 588.259Z" fill="#E6EAEE" stroke="#A4ABB5"/>
<path d="M19.0992 300.355L23.4889 331.738L3.35517 370.249L-43.867 395.3L-81.5781 388.92L-59.9813 344.273L-73.8913 299.747L-37.6528 264.693L-17.5194 243.472L-12.018 267.794L-17.5194 291.808L-1.03426 291.201L19.0992 300.355Z" fill="#E6EAEE" stroke="#A4ABB5"/>
<path d="M597.692 894.357L588.096 920.351L592.077 930.504L586.49 947.27L566.109 935.006L552.561 931.485L515.372 914.803L519.106 897.841L550.28 900.867L577.454 897.252L597.692 894.357ZM429.583 793.312L445.565 817.803L441.821 862.739L429.707 860.61L418.837 871.828L408.747 862.917L407.683 821.969L401.601 802.307L416.253 804.035L429.583 793.312ZM513.937 591.495L552.038 601.312L549.149 619.908L555.525 635.852L534.317 630.407L512.654 643.642L514.127 662.005L510.868 672.476L519.6 691.054L544.579 709.277L557.976 738.858L587.621 767.318L608.495 767.103L614.985 774.847L607.507 781.805L631.366 794.368L650.929 804.829L673.77 822.753L676.535 829.133L671.556 841.331L656.772 825.415L633.627 819.783L622.415 841.845L641.665 854.399L638.501 871.949L627.375 873.938L613.141 902.492L602.044 905.033L602.148 894.908L607.583 877.039L613.369 869.885L602.966 850.363L594.841 833.243L583.782 828.993L575.915 814.207L558.794 807.949L547.268 794.06L527.553 791.809L506.735 776.089L482.364 753.224L464.254 732.787L455.94 697.265L442.686 693.043L421.013 681.022L408.747 685.954L393.354 702.785L382.285 705.438L385.335 689.709L370.893 685.095L364.023 656.709L373.259 645.426L365.42 631.434L366.522 620.842L377.991 628.875L390.836 627.1L405.773 614.36L410.39 620.329L423.075 619.133L428.842 603.908L448.558 608.653L460.292 602.264L462.401 586.666L478.544 592.093L481.642 584.835L507.97 578.185L513.937 591.495Z" fill="#E6EAEE" stroke="#A4ABB5"/>
<path d="M737.314 763.917L736.117 771.109L732.734 770.819L730.939 758.079L724.563 754.474L718.891 744.984L723.869 737.026L730.245 734.467L733.931 722.604L738.711 720.624L742.492 725.677L747.471 727.9L750.958 733.57L755.338 735.251L760.516 741.836L764.298 741.64L761.314 750.27L758.122 754.474L759.006 757.117L753.048 758.471L737.314 763.917Z" fill="#E6EAEE" stroke="#A4ABB5"/>
<path d="M789.784 279.864L787.647 268.394L790.497 255.999L778.715 248.779L750.819 240.784L745.156 201.89L775.665 187.478L820.341 190.505L846.508 185.844L850.251 195.632L864.428 198.64L890.034 221.234L892.542 241.848L870.699 256.438L864.513 281.881L835.591 298.666L809.842 298.367L803.448 284.646L789.784 279.864Z" fill="#E6EAEE" stroke="#A4ABB5"/>
<path d="M345.229 459.134L350.549 468.315L349.048 486.015L341.362 486.856L335.395 483.372L338.283 460.675L345.229 459.134Z" fill="#E6EAEE" stroke="#A4ABB5"/>
<path d="M745.156 201.893L746.068 166.324L759.161 136.108L784.274 119.455L805.423 155.686L826.802 154.752L831.923 117.493L854.612 108.806L866.29 114.84L889.217 132.979L911.184 133.064L924.021 144.225L926.291 167.492L934.852 195.42L906.234 213.437L890.034 221.236L864.428 198.642L850.251 195.634L846.508 185.846L820.341 190.507L775.665 187.48L745.156 201.893Z" fill="#E6EAEE" stroke="#A4ABB5"/>
<path d="M893.375 535.331L899.732 529.549L917.432 525.654L937.072 537.881L948.027 539.347L960.065 549.846L958.156 562.988L967.857 569.302L971.704 585.339L981.006 595.034L979.125 600.704L984.094 604.543L977.035 607.345L961.339 606.234L958.716 600.994L953.149 604.02L955.03 610.782L947.733 622.794L943.086 635.637L936.378 639.681L931.609 622.626L934.411 606.523L933.566 589.851L918.193 567.041L909.746 550.714L901.489 539.151L893.375 535.331Z" fill="#E6EAEE" stroke="#A4ABB5"/>
<path d="M711.745 748.124L710.054 741.446L698.5 758.866L700.286 770.037L694.709 767.328L687.25 755.84L675.734 748.825L678.661 742.81L682.566 723.204L691.231 714.863L696.21 711.575L703.279 717.75L707.165 722.709L715.925 726.567L726.083 733.974L723.888 737.028L718.909 744.986L711.745 748.124Z" fill="#E6EAEE" stroke="#A4ABB5"/>
<path d="M732.775 770.825L736.157 771.114L737.354 763.922L753.089 758.477L759.046 757.122L768.12 755.068L780.472 754.479L793.812 765.772L795.703 788.87L790.629 790.029L786.239 796.072L771.807 795.399L761.65 802.965L744.224 806.019L733.174 797.604L729.383 782.715L732.775 770.825Z" fill="#E6EAEE" stroke="#A4ABB5"/>
<path d="M315.577 331.416L313.952 339.897L318.55 341.373L320.565 345.184L321.372 348.649L325.078 349.947L325.363 351.787L322.057 354.262L318.399 354.487V357.214L320.935 361.557L317.277 365.779L320.973 366.947L328.498 359.745L333.05 353.132V348.649L331.463 345.539L327.111 343.4L328.109 338.533L327.111 334.255L331.064 324.915L334.978 320.049L346.038 316.116L368.177 317.359L373.155 332.145L366.514 371.607L359.768 387.589L343.758 387.608L348.233 431.414L333.591 421.737L316.726 403.468L292.042 412.163L272.535 408.876L279.205 397.303L287.918 386.011L300.07 374.344L307.263 354.804L309.591 334.424L315.577 331.416Z" fill="#E6EAEE" stroke="#A4ABB5"/>
<path d="M934.56 -714.774L1017.89 -656.49L983.578 -635.698L1012.77 -587.922L967.436 -558.145L945.915 -551.383L957.202 -603.614L923.016 -633.989L881.647 -608.069L868.583 -553.391L843.185 -521.269L814.576 -538.736L779.792 -535.149L750.185 -573.939L734.213 -554.437L717.691 -551.42L713.776 -503.943L663.57 -515.375L656.52 -475.987L630.942 -476.221L613.355 -427.249L586.704 -353.768L545.334 -265.035L555.035 -244.187L545.762 -220.331L519.338 -221.35L502.036 -166.185L503.671 -91.0514L520.697 -63.2358L511.88 -0.403015L489.713 35.2025L477.969 64.5781L460.097 33.2784L407.497 91.8051L371.981 103.434L335.144 78.0748L325.623 23.3029L317.195 -100.513L341.728 -136.707L412.067 -185.128L464.667 -246.643L513.438 -333.518L577.449 -462.06L622.068 -515.058L695.277 -607.462L753.739 -641.013L797.569 -636.903L838.14 -702.239L886.721 -698.68L934.56 -714.774Z" fill="#E6EAEE" stroke="#A4ABB5"/>
<path d="M584.274 418.85L573.357 392.099L575.438 377.5L568.844 354.626L559.172 339.223L566.602 327.604L560.369 305.252L578.574 292.222L620.152 271.524L653.701 256.225L680.287 263.884L682.292 274.877L707.983 275.438L740.801 280.538L789.79 279.865L803.454 284.647L809.848 298.369L811.007 317.89L818.4 334.506L818.238 351.767L802.266 360.547L810.485 380.321L810.988 399.123L824.386 435.466L821.535 447.002L808.318 451.775L784.128 485.484L790.997 503.464L785.173 501.148L759.861 485.755L740.687 491.434L728.107 487.315L712.363 495.899L698.928 481.674L687.973 487.138L686.472 484.709L674.215 464.814L654.405 462.348L651.887 449.58L633.606 444.994L629.635 455.558L615.164 447.105L616.827 435.793L596.911 432.198L584.274 418.85Z" fill="#E6EAEE" stroke="#A4ABB5"/>
<path d="M-56.4679 769.938L-46.8049 761.018L-35.9256 755.881L-29.2556 773.076L-13.5212 773.039L-8.96068 768.612L6.56468 769.844L14.0138 787.348L1.70001 796.745L1.35786 823.598L-2.96516 828.605L-4.03889 844.679L-15.5451 847.472L-4.87485 867.694L-12.2291 889.644L-3.04114 899.517L-6.69928 908.512L-16.5713 920.86L-14.3479 931.704L-25.0561 940.175L-39.0992 935.589L-52.8477 939.186L-48.781 913.546L-51.2799 893.203L-63.2042 890.139L-69.5703 877.502L-67.4513 855.505L-56.8289 843.222L-54.938 829.464L-49.3798 808.85L-49.9782 794.204L-55.299 781.725L-56.4679 769.938Z" fill="#E6EAEE" stroke="#A4ABB5"/>
<path d="M789.223 548.56L800.73 540.201L817.205 544.534L834.288 544.675L846.659 554.183L855.753 548.215L875.411 544.469L882.119 535.325L893.359 535.334L901.474 539.155L909.73 550.718L918.177 567.045L933.55 589.854L934.396 606.526L931.593 622.629L936.363 639.685L948.249 646.532L960.762 640.554L972.848 646.933L973.466 656.479L960.553 664.409L952.458 660.962L945.009 704.965L929.341 701.173L909.958 687.984L878.594 696.428L865.377 705.656L826.26 703.751L805.784 698.109L795.466 700.762L787.798 685.836L782.924 679.475L789.1 673.301L782.525 668.743L774.163 676.944L758.629 666.296L756.538 651.09L740.3 642.356L737.317 630.494L722.875 615.745L744.234 608.628L760.348 582.839L772.947 556.705L789.223 548.56Z" fill="#E6EAEE" stroke="#A4ABB5"/>
<path d="M740.322 642.353L756.559 651.087L758.65 666.293L774.184 676.941L782.546 668.74L789.121 673.298L782.945 679.472L787.819 685.833L781.244 694.08L783.639 707.297L796.58 722.811L786.422 733.973L781.947 745.275L784.836 749.487L780.456 754.475L768.104 755.064L759.03 757.118L758.146 754.475L761.339 750.272L764.322 741.641L760.541 741.837L755.362 735.253L750.982 733.571L747.495 727.902L742.517 725.679L738.735 720.625L733.956 722.606L730.269 734.468L723.894 737.027L726.089 733.973L715.931 726.566L707.171 722.709L703.285 717.749L696.216 711.575L702.487 709.987L706.373 692.978L693.527 678.967L700.197 662.837L690.543 662.93L700.795 649.032L692.33 638.44L685.859 623.962L706.269 614.071L722.896 615.742L737.338 630.491L740.322 642.353Z" fill="#E6EAEE" stroke="#A4ABB5"/>
<path d="M5248.61 -339.775L5222.19 -312.005L5178.52 -305.486L5177.87 -245.119L5167.2 -232.537L5142.26 -234.34L5121.94 -255.487L5086.52 -273.392L5080.56 -300.386L5053.5 -310.679L5023.21 -302.506L5008.74 -324.634L5014.53 -348.47L4982.62 -333.199L4994.64 -303.366L4979.53 -276.904L4979.33 -276.568L4945.08 -249.621L4910.55 -254.086L4934.58 -221.936L4950.44 -173.357L4962.75 -157.777L4965.83 -134.127L4958.96 -119.164L4909.3 -131.465L4834.84 -89.3308L4811.15 -82.9047L4770.39 -44.6465L4731.72 -11.9084L4721.93 11.9374L4683.82 -24.49L4614.4 16.7852L4602.29 -2.62415L4576.63 19.7368L4541 12.6101L4532.42 46.5248L4500.45 95.2628L4501.41 115.223L4531.75 126.189L4528.18 195.849L4503.45 197.587L4492.04 236.387L4503.12 256.039L4456.54 279.082L4447.29 329.566L4407.57 340.167L4399.59 383.722L4361.18 422.792L4351.34 393.978L4339.93 331.462L4325.07 232.015L4337.87 167.062L4360.35 138.378L4361.73 115.578L4403.13 104.557L4450.72 41.2196L4496.58 -12.2727L4544.46 -54.9583L4565.88 -133.1L4533.52 -128.327L4517.51 -82.3538L4449.94 -22.9393L4428.12 -89.611L4359.35 -70.9397L4292.67 18.3544L4314.66 49.8966L4255.2 63.1506L4214.01 68.3534L4215.94 31.4963L4174.54 23.6597L4141.53 48.8972L4060.07 40.1079L3972.44 55.2395L3886.14 151.725L3784.05 261.727L3826.01 267.425L3839.12 295.455L3865 305.309L3882.04 283.098L3911.27 286.003L3949.73 334.489L3950.63 371.14L3929.82 413.284L3927.56 462.471L3915.55 526.433L3875.39 582.597L3866.47 608.909L3830.31 652.454L3794.42 694.747L3777.21 716.071L3741.72 737.04L3724.91 737.498L3708.18 720.143L3672.41 746.222L3668.25 757.972L3664.52 751.798L3664.36 733.781L3677.96 732.819L3681.8 690.292L3674.78 658.927L3697.65 645.86L3729.97 652.426L3747.89 616.11L3757.02 574.434L3767.37 560.32L3781.38 525.191L3737.35 536.764L3714.25 552.147L3673.76 552.101L3662.98 515.253L3631.42 486.905L3585.06 474.025L3575.2 434.01L3565.92 408.502L3555.93 390.409L3539.47 347.341L3516.08 331.36L3476.21 318.339L3440.88 319.525L3407.78 327.418L3385.78 349.022L3400.4 359.25L3400.73 382.806L3385.91 396.35L3361.86 440.483L3362.11 458.501L3324.56 484.084L3292.58 468.841L3260.79 472.213L3246.84 458.604L3230.86 454.195L3191.85 482.767L3156.78 489.417L3132.29 499.337L3098.74 492.827L3074.03 493.247L3057.86 472.67L3031.77 453.13L3005.07 447.74L2971.37 453.093L2946.19 460.649L2908.35 443.454L2903.27 412.425L2871.95 401.674L2847.76 396.752L2817.92 379.276L2790.33 422.792L2801.15 447.078L2775.25 475.416L2736.73 465.235L2710.14 463.778L2692.33 444.705L2664.54 444.098L2641.37 431.451L2600.85 450.795L2550.02 485.719L2521.93 492.668L2511.5 495.956L2497.37 471.353L2463.05 476.761L2451.72 459.547L2433.09 451.626L2420.27 427.855L2405.56 420.392L2367.28 431.04L2330.58 407.082L2316.39 428.873L2256.85 320.749L2222.86 286.573L2232.6 272.525L2165.85 314.5L2140.3 317.004L2142.5 292.877L2108.28 277.643L2080.47 288.534L2072.08 241.72L2024.2 231.828L2000.25 250.818L1933.58 267.546L1920.58 278.652L1820.89 294.185L1808.68 309.298L1827.91 339.262L1802.33 350.508L1807.32 362.22L1781.75 382.984L1824.93 411.92L1818.26 431.591L1780.84 429.807L1773.1 442.043L1739.03 420.626L1696.8 421.457L1668.52 438.905L1636.99 422.176L1578.26 393.202L1536.64 394.295L1481.65 439.587L1478.33 469.41L1450.94 445.761L1429.68 490.314L1437.47 498.478L1422.09 528.507L1444.71 555.006L1464.48 553.922L1481.46 579.702L1478.76 599.335L1492.29 605.462L1480.15 627.795L1454.32 633.96L1427.84 672.143L1452.05 706.656L1449.43 730.81L1478.52 772.431L1462.62 786.497L1458.05 795.324L1446.26 792.961L1427.95 771.796L1420.46 770.619L1403.71 762.483L1395.56 748.006L1370.71 740.59L1354.56 746.166L1349.89 739.572L1313.62 722.469L1274.39 716.659L1251.87 710.514L1248.63 714.763L1214.66 684.183L1184.26 670.387L1161.25 648.727L1180.64 642.787L1202.75 611.459L1187.85 596.468L1227.11 580.897L1226.41 572.5L1202.5 578.693L1203.33 561.581L1217.06 550.756L1242.84 547.898L1247.03 534.868L1241.14 513.133L1251.96 492.276L1251.65 480.479L1212.38 467.318L1196.8 467.757L1180.37 448.675L1159.93 455.147L1126.09 440.745L1126.67 432.637L1117.2 414.648L1095.96 412.63L1093.75 399.628L1100.4 391.101L1083.38 367.049L1055.76 371.177L1047.66 369.039L1040.93 378.725L1030.99 377.006L1024.44 349.573L1018.19 335.189L1023.32 331.126L1044.81 332.639L1055.18 323.093L1047.5 311.39L1029.53 303.619L1031.14 295.614L1020.3 287.488L1003.59 258.038L1009.3 245.764L1006.7 224.207L980.657 213.157L966.68 218.696L962.898 207.151L934.85 195.42L926.289 167.501L924.019 144.225L911.182 133.073L922.593 117.577L914.688 71.23L933.643 41.9667L929.633 33.0094L959.915 4.32495L931.999 -20.7445L989.036 -89.91L1013.78 -122.162L1023.8 -151.155L984.372 -190.907L995.26 -229.623L971.279 -274.962L989.217 -328.799L958.233 -403.121L982.813 -454.287L942.014 -500.896L945.9 -551.371L967.421 -558.134L1012.75 -587.911L1040.24 -614.185L1084 -568.791L1156.96 -551.269L1257.61 -470.512L1278.06 -437.745L1279.82 -392.949L1250.24 -358.436L1206.74 -341.194L1087.81 -390.82L1068.25 -382.413L1111.68 -334.805L1113.38 -305.346L1115.12 -242.27L1149.42 -223.907L1170.24 -208.43L1173.68 -237.45L1157.63 -263.613L1174.59 -287.01L1238.99 -248.724L1261.42 -263.604L1243.49 -309.157L1305.59 -372.129L1330.18 -368.356L1355.05 -345.659L1370.57 -390.595L1348.35 -430.6L1361.4 -471.754L1341.82 -515.579L1416.34 -492.77L1431.56 -453.699L1397.83 -445.218L1398.01 -407.501L1418.98 -384.73L1460.14 -399.123L1466.65 -442.192L1522.3 -475.116L1615.28 -536.231L1635.36 -532.663L1609.1 -489.323L1642.15 -481.991L1661.23 -506.127L1711.16 -508.097L1750.73 -537.921L1781.09 -494.759L1811.36 -542.274L1783.44 -585.025L1797.3 -609.898L1875.99 -587.08L1912.86 -563.841L2009.41 -481.655L2027.22 -518.783L2000.14 -557.181L1999.36 -572.845L1967.26 -580.149L1976.05 -615.895L1961.79 -676.523L1960.99 -702.088L2010.16 -776.717L2027.64 -855.354L2047.45 -872.895L2117.98 -849.413L2123.54 -801.002L2098.28 -732.976L2114.85 -707.019L2123.42 -651.556L2117.37 -548.13L2146.76 -503.95L2135.33 -457.174L2083.15 -361.921L2113.6 -352.356L2124.19 -375.838L2153.5 -392.79L2160.57 -425.977L2183.63 -458.565L2168.11 -498.355L2180.55 -545.833L2151.41 -551.848L2145.01 -593.113L2166.26 -670.433L2131.66 -736.124L2179.34 -792.558L2173.18 -854.383L2186.46 -856.4L2200.46 -807.933L2189.96 -726.98L2218.47 -712.11L2206.32 -771.636L2250.9 -805.065L2306.19 -809.623L2355.42 -761.24L2331.73 -832.432L2329.08 -928.47L2375.41 -947.347L2439.49 -943.2L2497.21 -955.539L2475.56 -1005.8L2506.4 -1071.33L2537 -1074.13L2588.8 -1125.63L2659.14 -1139.77L2668.04 -1169.22L2737.98 -1179.32L2759.78 -1154.98L2819.57 -1213.24L2868.52 -1211.38L2875.85 -1260.31L2901.31 -1310.13L2964.2 -1359.74L3009.9 -1320.44L2973.62 -1291.19L3033.97 -1273.29L3041.17 -1216.93L3065.51 -1244.42L3143.39 -1242.9L3203.44 -1188.32L3224.83 -1147.68L3218.2 -1093L3188.72 -1062.72L3118.72 -1007.45L3098.71 -978.693L3131.74 -965.309L3171.16 -941.472L3195.13 -959.312L3208.72 -899.599L3220.42 -923.501L3263.02 -938.212L3348.49 -922.838L3354.99 -880.096L3466.36 -866.74L3467.89 -936.54L3524.42 -920.27L3566.96 -920.774L3609.97 -872.783L3622.24 -816.386L3606.47 -780.556L3639.93 -715.342L3681.83 -682.716L3707.53 -768.442L3750.27 -731.117L3795.67 -753.31L3847.23 -727.942L3866.85 -751.059L3910.43 -739.458L3891.2 -817.899L3926.38 -855.886L4166.98 -799.274L4189.66 -749.256L4259.4 -687.115L4366.98 -702.274L4420.01 -689.067L4442.19 -656.394L4438.95 -600.203L4471.77 -578.851L4507.43 -594.178L4554.68 -596.149L4604.97 -581.438L4655.46 -589.723L4701.87 -524.396L4734.88 -547.589L4713.33 -594.982L4725.2 -628.775L4810.19 -607.423L4865.6 -611.962L4942.22 -576.067L4979.52 -543.936L5044.78 -489.22L5114.64 -420.653L5112.35 -379.209L5130.31 -362.911L5124.14 -410.976L5196.45 -401.001L5248.61 -339.775ZM4037.89 505.502L4011.08 433.73L4000.09 391.615L4000.77 349.62L3991.55 307.56L3984.62 278.138L3972.76 284.424L3983.34 305.02L3958.71 325.251L3956.35 384.058L3971.96 425.259L3970.8 479.918L3964.63 510.153L3967.67 552.531L3964.7 590.032L3969.64 621.789L3987.1 592.516L4007.29 615.354L4008.03 588.865L3982.07 549.364L3998.46 492.322L4037.89 505.502ZM778.713 248.781L750.817 240.786L714.056 255.572L707.984 275.439L740.792 280.529L789.782 279.857L787.644 268.387L790.485 255.992L778.713 248.781ZM4979.52 -686.359L5014.31 -691.215L5041.76 -710.503L5044.04 -721.6L5005.5 -745.091L4982.93 -745.268L4979.52 -741.803L4945.56 -707.757L4950.31 -682.295L4979.52 -686.359ZM3935.52 -939.38L3910.24 -902.812L3914.91 -897.974L3969.5 -887.849L4009.89 -888.484L4006.67 -912.48L3968.83 -948.066L3935.52 -939.38ZM4169.01 -1028.37L4199.8 -1068.05L4132.95 -1094.91L4083.28 -1110.61L4076.91 -1077.12L4126.42 -1037.27L4169.01 -1028.37ZM3930.25 -1044.2L4028.45 -1041.43L4049.4 -1117.51L3953.1 -1174.22L3882.76 -1179L3847.61 -1158.64L3833.29 -1086.23L3886.07 -1020.73L3930.25 -1044.2ZM1582.27 -801.843L1555.03 -783.554L1558.92 -738.422L1607.14 -716.49L1614.21 -680.829L1701.26 -670.536L1716.99 -677.476L1666.03 -743.849L1660.62 -814.051L1702.38 -899.45L1742.08 -991.163L1824.84 -1086.14L1906.2 -1135.99L2000.6 -1189.61L2018.5 -1224.22L1999.98 -1269.31L1948.13 -1254.33L1902.5 -1212.37L1813.84 -1191.62L1725.88 -1122.41L1666.3 -1067.78L1673.51 -1022.29L1609.73 -937.96L1634.22 -926.565L1581.38 -849.311L1582.27 -801.843ZM2983.48 -1436.48L2991.4 -1489.91L2923.87 -1567.84L2903.86 -1577.04L2881.97 -1561.2L2833.3 -1387.43L2983.48 -1436.48ZM1423.07 -1710.28L1451.93 -1674.08L1483.06 -1699.23L1486.78 -1724.63L1510.73 -1736.51L1546.5 -1757.38L1556.8 -1781.89L1517.29 -1817.82L1492.18 -1790.71L1476.88 -1752.18L1471.43 -1795.6L1430.96 -1793.63L1378.95 -1764.19L1438.24 -1759.32L1423.07 -1710.28ZM2670.13 -1588.42L2714.34 -1534.9L2788.54 -1495.66L2846.67 -1512.5L2853.24 -1639.74L2791.9 -1789.56L2740.13 -1873.84L2682.51 -1835.46L2613.34 -1724.92L2649.68 -1694.38L2670.13 -1588.42Z" fill="#E6EAEE" stroke="#A4ABB5"/>
<path d="M775.172 -323.569L749.338 -279.762L753.499 -242.251L711.123 -194.251L659.672 -144.392L640.28 -65.8208L659.245 -27.8335L684.719 1.4953L660.242 59.6485L632.537 71.4642L622.379 154.014L607.243 198.456L574.929 193.926L559.85 230.811L529.009 232.922L520.543 188.929L498.243 134.652L477.977 64.5895L489.72 35.2141L511.887 -0.391418L520.705 -63.2242L503.678 -91.0398L502.044 -166.174L519.336 -221.338L545.769 -220.32L555.033 -244.175L545.332 -265.023L586.701 -353.757L613.344 -427.237L630.94 -476.209L656.518 -475.976L663.568 -515.364L713.774 -503.931L717.688 -551.399L734.211 -554.416L769.718 -518.904L811.306 -470.773L812.009 -366.908L820.997 -341.689L775.172 -323.569Z" fill="#E6EAEE" stroke="#A4ABB5"/>
<path d="M552.035 601.317L574.041 604.25L587.485 595.638L610.782 594.695L615.866 588.26L620.341 588.68L625.519 601.523L604.312 611.573L601.718 626.77L592.464 630.6L592.559 641.023L582.107 640.304L573.043 634.214L568.168 640.51L549.603 639.239L555.531 635.858L549.156 619.914L552.035 601.317Z" fill="#E6EAEE" stroke="#A4ABB5"/>
<path d="M686.469 484.705L687.969 487.134L698.925 481.67L712.36 495.895L728.103 487.311L740.684 491.43L759.858 485.751L785.169 501.144L777.786 511.493L772.589 527.419L766.908 531.435L738.375 519.47L729.643 521.88L723.391 531.146L710.887 536.04L707.999 533.527L695.029 539.608L684.445 540.766L682.297 548.603L659.941 553.366L650.116 549.126L636.558 539.141L633.906 525.532L636.044 520.535L639.826 511.829L651.627 512.493L660.719 508.392L661.441 504.694L666.544 502.807L668.283 493.719L674.402 491.981L678.525 484.752L686.469 484.705Z" fill="#E6EAEE" stroke="#A4ABB5"/>
<path d="M1167.6 788.959L1205.81 802.362L1236.84 797.029L1259.78 800.111L1291.24 781.991L1319.62 780.338L1345.28 797.402L1349.81 809.554L1347.24 826.255L1367.05 834.736L1377.54 844.665L1359.3 854.304L1367.61 892.712L1362.4 902.986L1376.97 929.345L1364.2 934.865L1354.84 926.533L1323.86 922.302L1312.42 927.393L1282.12 932.474L1267.76 931.923L1237.1 944.159L1215.18 944.261L1201.01 938.134L1171.67 947.185L1162.96 940.861L1161.52 958.963L1154.38 966.034L1147.25 973.086L1137.45 958.459L1147.54 946.279L1131.29 949.044L1109.01 941.562L1090.69 960.233L1050.27 963.867L1028.7 946.484L999.984 945.391L993.846 958.842L975.432 962.68L949.673 945.429L920.59 946.017L904.808 913.475L885.349 895.131L898.309 869.183L881.425 853.09L910.974 820.548L952.001 819.175L963.194 792.966L1013.97 797.552L1046 774.986L1077.04 765.075L1121.12 764.328L1167.6 788.959ZM908.637 811.254L886.403 829.711L878.023 813.758L878.394 806.65L884.722 802.783L892.969 781.066L879.99 771.819L907.126 760.77L930.063 765.486L933.227 778.946L956.476 790.192L951.631 798.682L919.991 800.588L908.637 811.254Z" fill="#E6EAEE" stroke="#A4ABB5"/>
<path d="M1031.02 377.007L1040.97 378.726L1047.71 369.04L1055.79 371.179L1083.42 367.05L1100.44 391.102L1093.79 399.629L1095.99 412.631L1117.24 414.649L1126.71 432.648L1126.13 440.755L1159.97 455.158L1180.41 448.685L1196.85 467.768L1212.42 467.338L1251.69 480.489L1252.01 492.286L1241.18 513.143L1247.07 534.878L1242.88 547.908L1217.1 550.766L1203.37 561.592L1202.52 578.703L1181.26 581.767L1163.53 594.115L1138.59 596.123L1115.64 610.255L1103.06 619.876L1117.2 633.606L1130.24 642.601L1157.41 640.359L1152.2 653.604L1123.04 660.002L1086.87 681.223L1072.06 673.788L1077.93 656.499L1048.83 645.664L1053.53 638.538L1083.58 623.257L1079.85 615.635L1075.55 619.474L1071.32 617.513L1029.91 607.976L1028.08 593.835L1003.39 598.514L993.501 619.325L972.873 646.935L960.787 640.555L948.274 646.533L936.388 639.687L943.096 635.642L947.742 622.799L955.039 610.787L953.158 604.025L958.726 600.999L961.348 606.239L977.044 607.35L984.104 604.548L979.134 600.709L981.016 595.04L971.714 585.344L967.866 569.307L958.165 562.993L960.075 549.851L948.037 539.352L937.081 537.886L917.442 525.659L899.741 529.554L893.384 535.336L882.144 535.326L875.436 544.471L855.777 548.216L846.684 554.185L834.313 544.676L817.23 544.536L800.754 540.202L789.248 548.562L787.386 538.101L772.602 527.424L777.799 511.499L785.182 501.15L791.006 503.466L784.137 485.486L808.327 451.777L821.543 447.004L824.394 435.468L810.997 399.125L823.738 397.491L838.333 386.049L858.979 385.105L885.887 388.421L915.617 398.546L936.596 399.387L946.62 405.449L956.607 398.135L963.59 407.942L987.638 405.934L998.232 409.978L999.942 388.823L1008.15 379.529L1031.02 377.007Z" fill="#E6EAEE" stroke="#A4ABB5"/>
<circle cx="400.539" cy="523" r="4" fill="#FD0000"/>
<circle cx="412.539" cy="514" r="4" fill="#FD0000"/>
<circle cx="486.539" cy="538" r="4" fill="#FD0000"/>
<circle cx="503.539" cy="510" r="4" fill="#FD0000"/>
<circle cx="458.539" cy="481" r="4" fill="#FD0000"/>
<circle cx="406.539" cy="477" r="4" fill="#FD0000"/>
<circle cx="429.539" cy="457" r="4" fill="#FD0000"/>
<circle cx="361.539" cy="401" r="4" fill="#FD0000"/>
<circle cx="384.539" cy="384" r="4" fill="#FD0000"/>
<circle cx="400.539" cy="359" r="4" fill="#FD0000"/>
<circle cx="390.539" cy="334" r="4" fill="#FD0000"/>
<circle cx="435.539" cy="269" r="4" fill="#FD0000"/>
<circle cx="423.539" cy="303" r="4" fill="#FD0000"/>
<circle cx="355.539" cy="481" r="4" fill="#FD0000"/>
</g>
<defs>
<clipPath id="clip0_4041_20354">
<rect width="912" height="800" fill="white"/>
</clipPath>
</defs>
</svg>
