<svg width="72" height="72" viewBox="0 0 72 72" fill="none" xmlns="http://www.w3.org/2000/svg">
<g clip-path="url(#clip0_1379_2784)">
<path d="M72 35.994C72 43.1129 69.8887 50.072 65.9329 55.9912C61.9772 61.9104 56.3547 66.5238 49.7766 69.2481C43.1984 71.9724 35.9602 72.6853 28.9768 71.2964C21.9935 69.9076 15.5789 66.4795 10.5442 61.4456C5.50951 56.4117 2.0808 49.9983 0.691733 43.0161C-0.697335 36.0339 0.0156355 28.7967 2.74039 22.2197C5.46514 15.6426 10.0793 10.0212 15.9995 6.06608C21.9197 2.11101 28.8799 0 36 0C45.5478 0 54.7046 3.79222 61.4559 10.5424C68.2072 17.2926 72 26.4478 72 35.994Z" fill="white"/>
<path d="M44.0163 56.2469C43.8593 56.1359 43.6677 56.0848 43.4762 56.1029C43.2701 56.0861 43.065 56.146 42.9003 56.2709C42.7943 56.3511 42.711 56.4573 42.6584 56.5793C42.6058 56.7013 42.5858 56.8347 42.6003 56.9668V59.0904H44.2923C44.2923 59.0904 44.2923 57.0867 44.2923 56.9668C44.3129 56.8342 44.2994 56.6987 44.2532 56.5728C44.207 56.4469 44.1296 56.3347 44.0282 56.2469" fill="#FD0000"/>
<path d="M35.9982 8.19358e-05C30.2745 -0.00366645 24.6324 1.35718 19.5399 3.96973C14.4475 6.58228 10.0515 10.3712 6.71656 15.0223C3.38165 19.6733 1.20396 25.0523 0.364194 30.7131C-0.475574 36.3739 0.0467464 42.1534 1.88785 47.572C3.72896 52.9907 6.83577 57.8922 10.9505 61.8702C15.0653 65.8482 20.0695 68.7878 25.5479 70.4453C31.0262 72.1028 36.821 72.4303 42.4513 71.4008C48.0816 70.3712 53.3852 68.0143 57.9222 64.5254C57.6056 64.5394 57.289 64.4988 56.9862 64.4053C56.7362 64.3204 56.5127 64.1715 56.3381 63.9734C56.2148 63.8382 56.1135 63.6843 56.0381 63.5175C55.9684 63.3296 55.9358 63.1299 55.9422 62.9296V61.2379H57.5982V62.5697C57.5917 62.7546 57.6374 62.9375 57.7302 63.0976C57.784 63.1743 57.856 63.2364 57.9398 63.2783C58.0236 63.3202 58.1166 63.3405 58.2102 63.3375H58.3422C58.455 63.3259 58.5624 63.2826 58.6516 63.2125C58.7408 63.1424 58.8083 63.0485 58.8462 62.9416C58.858 62.7899 58.858 62.6374 58.8462 62.4857V61.8018C58.8352 61.5532 58.747 61.3142 58.5942 61.1179C58.3845 60.8646 58.1516 60.6316 57.8982 60.422L57.7542 60.266C57.1805 59.8309 56.6784 59.3087 56.2662 58.7183C56.0222 58.2704 55.9059 57.764 55.9302 57.2545C55.9109 56.8088 55.9972 56.3648 56.1821 55.9588C56.317 55.6874 56.5247 55.4589 56.7821 55.2989C56.9751 55.1873 57.1805 55.0987 57.3941 55.0349C57.6736 54.9722 57.9599 54.944 58.2462 54.9509C58.7898 54.9013 59.3352 55.023 59.8062 55.2989C60.0194 55.4698 60.1848 55.693 60.2862 55.9468C60.3765 56.1923 60.4173 56.4533 60.4062 56.7147V58.0704H58.8583V56.7626C58.8687 56.5924 58.8128 56.4246 58.7023 56.2947C58.6478 56.2357 58.5805 56.1899 58.5057 56.1608C58.4308 56.1317 58.3503 56.1201 58.2703 56.1268C58.1008 56.126 57.9375 56.1904 57.8143 56.3067C57.7328 56.4087 57.6728 56.5261 57.6377 56.6519C57.6027 56.7776 57.5933 56.9091 57.6102 57.0385C57.5985 57.3976 57.6812 57.7534 57.8502 58.0704C58.1886 58.5275 58.593 58.9319 59.0502 59.2702C59.5426 59.6163 59.9524 60.0669 60.2502 60.59C60.4777 61.1068 60.5805 61.6699 60.5502 62.2337V62.3897C65.8615 57.4665 69.5641 51.056 71.1742 43.9957C72.7843 36.9355 72.227 29.5538 69.5752 22.8152C66.9234 16.0766 62.3003 10.2943 56.31 6.22404C50.3198 2.15374 43.2408 -0.0153654 35.9982 8.19358e-05ZM32.6622 20.3967C35.2716 19.4328 38.0797 19.1318 40.8342 19.5209L34.8342 25.5199H26.1703C27.7163 23.1399 30.0207 21.3516 32.7102 20.4446L32.6622 20.3967ZM17.8302 19.5688H25.1143L22.5462 25.5678H15.2622L17.8302 19.5688ZM24.3821 64.0454C23.8413 64.459 23.1638 64.6519 22.4862 64.5853C22.1254 64.599 21.7648 64.5544 21.4182 64.4533C21.1837 64.3766 20.9757 64.2352 20.8182 64.0454C20.6748 63.8891 20.5573 63.7109 20.4702 63.5175C20.3928 63.3483 20.3558 63.1635 20.3622 62.9776V61.2859H21.9703V62.5816C21.9561 62.7949 22.0153 63.0066 22.1381 63.1815C22.2701 63.3495 22.3901 63.4095 22.7261 63.3855C22.8394 63.3754 22.9475 63.3325 23.037 63.2622C23.1264 63.1919 23.1935 63.0973 23.2302 62.9896C23.2479 62.8381 23.2479 62.6851 23.2302 62.5337V61.8377C23.2202 61.5946 23.1365 61.3603 22.9902 61.1659C22.725 60.8638 22.4403 60.5792 22.1381 60.3141C21.5676 59.8754 21.0661 59.3536 20.6502 58.7663C20.4118 58.3162 20.2959 57.8115 20.3142 57.3025C20.2982 56.8558 20.3887 56.4116 20.5782 56.0067C20.7123 55.7386 20.9152 55.5108 21.1662 55.3469C21.3585 55.2339 21.5641 55.1452 21.7782 55.0829C22.0613 55.0171 22.3518 54.9889 22.6422 54.9989C23.1867 54.9333 23.7373 55.0561 24.2023 55.3469C24.4093 55.5167 24.5721 55.7343 24.6766 55.9809C24.7811 56.2275 24.8242 56.4957 24.8023 56.7626V58.1184H23.2542V56.9786V56.9066C23.255 56.704 23.1825 56.508 23.0502 56.3547C23.0055 56.2989 22.949 56.2538 22.8846 56.2226C22.8203 56.1915 22.7497 56.1751 22.6782 56.1747C22.5914 56.1636 22.5031 56.1742 22.4214 56.2056C22.3398 56.237 22.2672 56.2882 22.2102 56.3547C22.0577 56.5668 21.9854 56.8262 22.0062 57.0866C21.9921 57.4473 22.0795 57.8048 22.2583 58.1184C22.5928 58.5788 22.9978 58.9837 23.4583 59.3182C23.9477 59.6677 24.3568 60.1176 24.6583 60.6379C24.8858 61.1547 24.9886 61.7178 24.9583 62.2817C24.9924 62.6089 24.9589 62.9397 24.8598 63.2534C24.7607 63.5672 24.5981 63.8571 24.3821 64.1054V64.0454ZM28.1862 67.8968H26.5902L27.3583 64.4174L25.2703 55.1429H27.0703L28.2703 62.0657L29.4703 55.1429H31.1982L28.1862 67.8968ZM35.5902 64.1054C35.0436 64.5165 34.3632 64.709 33.6821 64.6453C33.3214 64.6581 32.961 64.6136 32.6143 64.5134C32.375 64.4325 32.1603 64.2921 31.9902 64.1054C31.8574 63.9459 31.7483 63.7681 31.6662 63.5775C31.6033 63.4044 31.5709 63.2217 31.5703 63.0376V61.3459H33.1782V62.6776C33.1704 62.8626 33.2162 63.046 33.3102 63.2055C33.3605 63.2857 33.4319 63.3505 33.5166 63.3929C33.6013 63.4352 33.6959 63.4534 33.7902 63.4455H33.9222C34.0351 63.4339 34.1422 63.3905 34.2315 63.3204C34.3207 63.2504 34.3882 63.1564 34.4261 63.0496C34.4496 62.8985 34.4496 62.7447 34.4261 62.5936V62.0777C34.4384 61.7738 34.3498 61.4743 34.1742 61.2259C33.9646 60.9726 33.7316 60.7396 33.4782 60.53L33.3342 60.374C32.7605 59.9389 32.2584 59.4167 31.8462 58.8263C31.6022 58.3784 31.486 57.872 31.5102 57.3625C31.4909 56.9168 31.5772 56.4728 31.7622 56.0667C31.9072 55.8024 32.1128 55.5763 32.3622 55.4068C32.5512 55.2876 32.7577 55.1985 32.9742 55.1429C33.2557 55.0664 33.5465 55.03 33.8381 55.0349C34.3741 54.9847 34.9122 55.1065 35.3742 55.3828C35.5938 55.561 35.7703 55.7867 35.8902 56.0428C35.9702 56.2946 36.0027 56.5589 35.9862 56.8226V58.1784H34.4261V56.8706C34.4391 56.7765 34.4296 56.6807 34.3983 56.591C34.367 56.5013 34.315 56.4203 34.2462 56.3547C34.1903 56.3075 34.125 56.2725 34.0548 56.2518C33.9846 56.2312 33.9108 56.2253 33.8381 56.2347C33.7536 56.2293 33.669 56.2426 33.5901 56.2737C33.5113 56.3048 33.4402 56.353 33.3821 56.4147C33.3007 56.5167 33.2408 56.6341 33.2058 56.7598C33.1707 56.8856 33.1613 57.0171 33.1782 57.1466C33.1665 57.5056 33.2492 57.8614 33.4182 58.1784C33.7566 58.6355 34.161 59.0398 34.6182 59.3782C35.1106 59.7242 35.5204 60.175 35.8182 60.698C36.0457 61.2148 36.1485 61.7779 36.1182 62.3417C36.154 62.6681 36.1225 62.9983 36.0254 63.312C35.9284 63.6257 35.768 63.9161 35.5542 64.1654L35.5902 64.1054ZM40.4261 64.6573H39.1542C38.7352 64.6927 38.3156 64.5962 37.9542 64.3813C37.7721 64.2596 37.6334 64.0832 37.5583 63.8774C37.4796 63.613 37.447 63.337 37.4622 63.0616V56.3907H36.4902V55.1909H37.4622V53.3192L39.1302 52.7433V55.1429H40.3302V56.3427H39.1302V62.5096C39.1279 62.6068 39.1465 62.7034 39.1845 62.7929C39.2226 62.8824 39.2792 62.9628 39.3508 63.0286C39.4223 63.0945 39.507 63.1443 39.5994 63.1749C39.6917 63.2054 39.7895 63.2158 39.8862 63.2055H40.4622L40.4261 64.6573ZM45.9342 57.1586V60.434H42.6102V62.3897C42.5817 62.5524 42.5817 62.7188 42.6102 62.8816C42.6571 63.0105 42.7404 63.1231 42.8502 63.2055C43.0192 63.3109 43.2152 63.365 43.4143 63.3615C43.5265 63.367 43.6386 63.3485 43.7431 63.3073C43.8477 63.266 43.9422 63.2031 44.0206 63.1225C44.0989 63.0419 44.1591 62.9456 44.1974 62.8399C44.2356 62.7342 44.2508 62.6217 44.2422 62.5096V61.3098H45.8742V62.3897C45.8707 62.7779 45.7892 63.1615 45.6342 63.5175C45.4545 63.8421 45.1774 64.1022 44.8422 64.2614C44.3263 64.493 43.7631 64.5999 43.1982 64.5733C42.5632 64.6158 41.9374 64.4043 41.4583 63.9854C41.2454 63.7751 41.0797 63.5218 40.9721 63.2426C40.8645 62.9633 40.8175 62.6644 40.8342 62.3657V58.1664C40.7592 57.3383 40.9216 56.506 41.3023 55.7668C41.5042 55.5005 41.7685 55.288 42.0719 55.1478C42.3753 55.0077 42.7085 54.9441 43.0422 54.9629H43.7143C44.1732 54.9344 44.6297 55.0475 45.0222 55.2869C45.2808 55.4386 45.4925 55.6586 45.6342 55.9227C45.7513 56.1133 45.8288 56.3255 45.8622 56.5467C45.8622 56.7266 45.8622 56.8466 45.8622 56.9786L45.9342 57.1586ZM54.8742 64.4414H53.2062V56.9786C53.2298 56.7681 53.1694 56.5569 53.0381 56.3907C52.894 56.2602 52.7045 56.1913 52.5102 56.1987C51.9222 56.1987 51.7422 56.3787 51.7422 57.2426V64.4414H49.9902V56.8826C49.9902 56.8826 49.9902 56.4147 49.6422 56.2707C49.4851 56.2279 49.3193 56.2279 49.1622 56.2707C49.0713 56.2794 48.9831 56.3061 48.9027 56.3494C48.8224 56.3927 48.7514 56.4515 48.6941 56.5226C48.5691 56.6874 48.5093 56.8925 48.5261 57.0986V64.4893H46.7982V55.1069H48.4182V56.1148L48.6102 55.7908C48.7174 55.626 48.8465 55.4767 48.9941 55.3469C49.1599 55.2096 49.3515 55.1071 49.5577 55.0452C49.7638 54.9834 49.9802 54.9636 50.1941 54.9869H50.2662C50.5182 54.9801 50.7671 55.0423 50.9862 55.1669C51.2651 55.356 51.4821 55.6231 51.6102 55.9348C51.7713 55.593 52.0415 55.3144 52.3782 55.1429C52.5984 55.034 52.8405 54.9765 53.0862 54.9749H53.2182C53.5222 54.9781 53.82 55.0608 54.0821 55.2149C54.3251 55.3522 54.528 55.5507 54.6703 55.7908C54.8183 56.0798 54.8885 56.4023 54.8742 56.7267V64.4414ZM57.1542 47.8361H27.1182L23.5182 39.7495C22.4622 37.5058 21.8502 35.9341 20.6622 35.9341H17.9862L12.8502 47.8361H5.56622L13.3182 29.9831H20.5182C25.1382 29.9831 26.8902 31.5548 28.9182 35.9821L34.3422 47.6561L37.0542 41.2132H60.2502L57.1542 47.8361ZM61.8703 29.9711C60.5383 33.0186 58.8702 35.9701 55.6302 35.9701H39.2502C40.5342 32.7306 43.4862 29.9711 46.3422 29.9711H53.2422C53.8713 29.9017 54.471 29.6678 54.9808 29.2929C55.4907 28.9179 55.8927 28.4152 56.1462 27.8355C56.7222 26.5037 56.2902 25.4359 54.7662 25.4359H43.6782L46.1982 19.4369H62.3982C64.4022 19.4369 65.9262 20.7326 63.9222 25.4359L61.8703 29.9711Z" fill="#FD0000"/>
</g>
<defs>
<clipPath id="clip0_1379_2784">
<rect width="72" height="72" fill="white"/>
</clipPath>
</defs>
</svg>
