<svg width="66" height="56" viewBox="0 0 66 56" fill="none" xmlns="http://www.w3.org/2000/svg">
<g clip-path="url(#clip0_12071_423)">
<path d="M30.2906 52.312H4.85859C2.46053 52.312 0.693543 49.9771 1.45082 47.6421L11.8003 14.4479C12.2421 12.9334 13.6304 11.9236 15.2081 11.9236H49.8537C51.4314 11.9236 52.8198 12.9965 53.2615 14.511L55.4702 21.9576" stroke="#E30513" stroke-width="1.8932" stroke-miterlimit="10" stroke-linecap="round" stroke-linejoin="round"/>
<path d="M38.8047 11.9236L43.2853 34.1372" stroke="#E30513" stroke-width="1.8932" stroke-miterlimit="10" stroke-linecap="round" stroke-linejoin="round"/>
<path d="M25.6845 11.9236L18.6797 52.312" stroke="#E30513" stroke-width="1.8932" stroke-miterlimit="10" stroke-linecap="round" stroke-linejoin="round"/>
<path d="M8.89062 23.6615H53.7596" stroke="#E30513" stroke-width="1.8932" stroke-miterlimit="10" stroke-linecap="round" stroke-linejoin="round"/>
<path d="M4.35156 38.176H39.2496" stroke="#E30513" stroke-width="1.8932" stroke-miterlimit="10" stroke-linecap="round" stroke-linejoin="round"/>
<path d="M32.3705 0.375061C26.8171 0.375061 22.2734 4.91875 22.2734 10.4722C22.2734 16.0256 32.3705 32.5595 32.3705 32.5595C32.3705 32.5595 42.4676 16.0887 42.4676 10.4722C42.4676 4.91875 37.9239 0.375061 32.3705 0.375061ZM32.3705 14.8265C30.0356 14.8265 28.1424 12.9333 28.1424 10.5984C28.1424 8.26342 30.0356 6.37021 32.3705 6.37021C34.7055 6.37021 36.5987 8.26342 36.5987 10.5984C36.5987 12.9964 34.7055 14.8265 32.3705 14.8265Z" fill="#E30513"/>
<path d="M36.5969 10.6614C36.5969 12.9963 34.7037 14.8895 32.3688 14.8895C30.0338 14.8895 28.1406 12.9963 28.1406 10.6614C28.1406 8.32643 30.0338 6.43323 32.3688 6.43323C34.7037 6.43323 36.5969 8.32643 36.5969 10.6614Z" fill="white"/>
<path d="M36.5969 10.6614C36.5969 12.9963 34.7037 14.8895 32.3688 14.8895C30.0338 14.8895 28.1406 12.9963 28.1406 10.6614C28.1406 8.32643 30.0338 6.43323 32.3688 6.43323C34.7037 6.43323 36.5969 8.32643 36.5969 10.6614Z" stroke="#E30513" stroke-width="1.8932" stroke-miterlimit="10" stroke-linecap="round" stroke-linejoin="round"/>
<path d="M55.9724 20.3168L32.8753 43.477L29.5938 54.8362L32.686 52.8168" stroke="white" stroke-width="1.8932" stroke-miterlimit="10" stroke-linecap="round" stroke-linejoin="round"/>
<path d="M56.673 33.3169L40.2021 49.7878L31.3672 52.3121L33.8915 43.4771L50.3623 27.0062L56.673 33.3169Z" stroke="#E30513" stroke-width="1.8932" stroke-miterlimit="10" stroke-linecap="round" stroke-linejoin="round"/>
<path d="M50.3594 27.0061L57.0487 20.3168C58.3739 18.9916 60.5196 18.9916 61.8448 20.3168L63.3594 21.8314C64.6846 23.1566 64.6846 25.3022 63.3594 26.6275L56.6701 33.3168" fill="#E30513"/>
<path d="M50.3594 27.0061L57.0487 20.3168C58.3739 18.9916 60.5196 18.9916 61.8448 20.3168L63.3594 21.8314C64.6846 23.1566 64.6846 25.3022 63.3594 26.6275L56.6701 33.3168" stroke="#E30513" stroke-width="1.8932" stroke-miterlimit="10" stroke-linecap="round" stroke-linejoin="round"/>
<path d="M33.8828 43.4771L40.1935 49.7877" stroke="#E30513" stroke-width="1.8932" stroke-miterlimit="10" stroke-linecap="round" stroke-linejoin="round"/>
</g>
<defs>
<clipPath id="clip0_12071_423">
<rect width="65" height="55.4078" fill="white" transform="translate(0.3125 0.375)"/>
</clipPath>
</defs>
</svg>
