<svg width="68" height="60" viewBox="0 0 68 60" fill="none" xmlns="http://www.w3.org/2000/svg">
<g clip-path="url(#clip0_12071_3031)">
<path d="M55.1406 8.0532V10.3594C54.5 9.46257 53.475 8.88601 52.3219 8.88601H33.5516C32.5906 8.88601 31.7578 8.50164 31.1172 7.86101C30.4766 7.22039 30.0922 6.38757 30.0922 5.42664C30.0922 4.20945 29.4516 3.18445 28.5547 2.54382H49.6313C52.7063 2.60789 55.1406 5.04226 55.1406 8.0532Z" fill="#E30513"/>
<path d="M48.5422 53.7938H9.14375C5.17187 53.7938 1.96875 50.5266 1.96875 46.5547V8.43756C1.96875 4.91412 4.85156 2.03131 8.375 2.03131H26.7609C27.4656 2.03131 28.1062 2.2235 28.6187 2.60787C29.5156 3.18444 30.1562 4.2735 30.1562 5.42662C30.1562 6.38756 30.5406 7.22037 31.1812 7.861C31.8219 8.50162 32.6547 8.886 33.6156 8.886H52.3859C53.5391 8.886 54.5641 9.46256 55.2047 10.3594C55.5891 10.936 55.7812 11.5766 55.7812 12.2813V15.4204" stroke="#E30513" stroke-width="2.5625" stroke-miterlimit="10" stroke-linecap="round" stroke-linejoin="round"/>
<path d="M60.3937 52.7689L39.7656 38.1626L60.8422 22.5955" stroke="#E30513" stroke-width="2.5625" stroke-miterlimit="10" stroke-linecap="round" stroke-linejoin="round"/>
<path d="M48.7344 38.1626C48.7344 43.0954 44.6984 47.1313 39.7656 47.1313C34.8328 47.1313 30.7969 43.0954 30.7969 38.1626C30.7969 33.2298 34.8328 29.1938 39.7656 29.1938C44.6984 29.2579 48.7344 33.2298 48.7344 38.1626Z" fill="white"/>
<path d="M39.7656 47.1313C44.7189 47.1313 48.7344 43.1159 48.7344 38.1626C48.7344 33.2093 44.7189 29.1938 39.7656 29.1938C34.8123 29.1938 30.7969 33.2093 30.7969 38.1626C30.7969 43.1159 34.8123 47.1313 39.7656 47.1313Z" stroke="#E30513" stroke-width="2.5625" stroke-miterlimit="10" stroke-linecap="round" stroke-linejoin="round"/>
<path d="M66.0328 22.8515C66.0328 25.9906 63.5344 28.489 60.3953 28.489C57.2562 28.489 54.7578 25.9906 54.7578 22.8515C54.7578 19.7125 57.2562 17.2141 60.3953 17.2141C63.5344 17.2141 66.0328 19.7765 66.0328 22.8515Z" fill="white"/>
<path d="M60.3953 28.489C63.5088 28.489 66.0328 25.9651 66.0328 22.8515C66.0328 19.738 63.5088 17.2141 60.3953 17.2141C57.2818 17.2141 54.7578 19.738 54.7578 22.8515C54.7578 25.9651 57.2818 28.489 60.3953 28.489Z" stroke="#E30513" stroke-width="2.5625" stroke-miterlimit="10" stroke-linecap="round" stroke-linejoin="round"/>
<path d="M66.0328 52.7688C66.0328 55.9079 63.5344 58.4063 60.3953 58.4063C57.2562 58.4063 54.7578 55.9079 54.7578 52.7688C54.7578 49.6298 57.2562 47.1313 60.3953 47.1313C63.5344 47.1313 66.0328 49.6298 66.0328 52.7688Z" fill="white"/>
<path d="M60.3953 58.4063C63.5088 58.4063 66.0328 55.8823 66.0328 52.7688C66.0328 49.6553 63.5088 47.1313 60.3953 47.1313C57.2818 47.1313 54.7578 49.6553 54.7578 52.7688C54.7578 55.8823 57.2818 58.4063 60.3953 58.4063Z" stroke="#E30513" stroke-width="2.5625" stroke-miterlimit="10" stroke-linecap="round" stroke-linejoin="round"/>
</g>
<defs>
<clipPath id="clip0_12071_3031">
<rect width="66.625" height="58.9375" fill="white" transform="translate(0.6875 0.75)"/>
</clipPath>
</defs>
</svg>
