<svg width="66" height="61" viewBox="0 0 66 61" fill="none" xmlns="http://www.w3.org/2000/svg">
<g clip-path="url(#clip0_12071_1232)">
<path d="M65.5006 43.9103C65.5006 31.9503 55.8156 22.2003 43.7906 22.2003C31.8306 22.2003 22.0156 32.1453 22.0156 44.1053V52.1653C22.0156 56.0653 25.2006 59.2503 29.1006 59.2503H58.4156C62.3156 59.2503 65.5006 56.0653 65.5006 52.1653V43.9103Z" fill="#E30513"/>
<path d="M43.7853 25.71C37.0903 25.71 31.6953 20.25 31.6953 13.62C31.6953 6.98997 37.0903 1.46497 43.7853 1.46497C50.4803 1.46497 55.8753 6.92497 55.8753 13.555C55.8753 20.185 50.4153 25.71 43.7853 25.71Z" fill="#E30513"/>
<path d="M43.7909 2.76492C49.7709 2.76492 54.5809 7.63992 54.5809 13.5549C54.5809 19.4699 49.7059 24.3449 43.7909 24.3449C37.8109 24.3449 33.0009 19.4699 33.0009 13.5549C33.0009 7.63992 37.8109 2.76492 43.7909 2.76492ZM43.7909 0.164917C36.3809 0.164917 30.3359 6.14492 30.3359 13.5549C30.3359 20.9649 36.3159 26.9449 43.7259 26.9449C51.1359 26.9449 57.1159 20.9649 57.1159 13.5549C57.1159 6.14492 51.2009 0.164917 43.7909 0.164917Z" fill="white"/>
<path d="M10.1831 59.1854C6.86813 59.1854 4.20312 56.5204 4.20312 53.2054V44.3654C4.20312 32.6654 13.6281 23.1104 25.2631 23.1104C36.8981 23.1104 46.3231 32.6004 46.3231 44.1704V53.2054C46.3231 56.5204 43.6581 59.1854 40.3431 59.1854H10.1831Z" fill="white"/>
<path d="M25.2662 24.475C36.1862 24.475 45.0262 33.38 45.0262 44.235V53.27C45.0262 55.87 42.9462 57.95 40.3462 57.95H10.1862C7.58625 57.95 5.50625 55.87 5.50625 53.27V44.365C5.50625 39.1 7.58625 34.095 11.2913 30.325C15.1263 26.555 20.0662 24.475 25.2662 24.475ZM25.2662 21.875C12.9812 21.875 2.90625 32.08 2.90625 44.365V53.205C2.90625 57.235 6.15625 60.485 10.1862 60.485H40.3462C44.3762 60.485 47.6263 57.235 47.6263 53.205V44.235C47.6263 31.885 37.6162 21.875 25.2662 21.875Z" fill="#E30513"/>
<path d="M25.2666 26.2299C18.4416 26.2299 12.8516 20.7049 12.8516 13.8799C12.8516 7.05491 18.4416 1.4649 25.2666 1.4649C32.0916 1.4649 37.6816 7.05491 37.6816 13.8799C37.6816 20.7049 32.0916 26.2299 25.2666 26.2299Z" fill="white"/>
<path d="M25.2697 2.76492C31.3797 2.76492 36.3847 7.76992 36.3847 13.8799C36.3847 19.9899 31.3797 24.9949 25.2697 24.9949C19.1597 24.9949 14.1547 19.9899 14.1547 13.8799C14.1547 7.76992 19.1597 2.76492 25.2697 2.76492ZM25.2697 0.164917C17.7297 0.164917 11.5547 6.27492 11.5547 13.8799C11.5547 21.4199 17.6647 27.5949 25.2697 27.5949C32.8097 27.5949 38.9847 21.4849 38.9847 13.8799C38.9847 6.27492 32.8097 0.164917 25.2697 0.164917Z" fill="#E30513"/>
<path d="M12.9125 31.4952C12.9125 34.9402 10.1175 37.6702 6.7375 37.6702C3.2925 37.6702 0.5625 34.8752 0.5625 31.4952C0.5625 28.0502 3.3575 25.3202 6.7375 25.3202C10.1175 25.3202 12.9125 28.1152 12.9125 31.4952Z" fill="#E30513"/>
</g>
<defs>
<clipPath id="clip0_12071_1232">
<rect width="65" height="60.32" fill="white" transform="translate(0.5 0.164978)"/>
</clipPath>
</defs>
</svg>
