<svg width="88" height="88" viewBox="0 0 88 88" fill="none" xmlns="http://www.w3.org/2000/svg">
<path d="M44 0.000100144C37.0044 -0.00448122 30.1085 1.65878 23.8844 4.8519C17.6603 8.04501 12.2874 12.676 8.21136 18.3605C4.13536 24.0451 1.47373 30.6195 0.44735 37.5382C-0.579033 44.457 0.0593589 51.5209 2.3096 58.1436C4.55984 64.7664 8.35705 70.7572 13.3862 75.6191C18.4154 80.4811 24.5316 84.074 31.2274 86.0998C37.9232 88.1256 45.0056 88.526 51.8871 87.2676C58.7686 86.0093 65.2508 83.1286 70.7961 78.8643C70.4091 78.8815 70.0221 78.8318 69.652 78.7176C69.3464 78.6138 69.0733 78.4319 68.86 78.1898C68.7092 78.0245 68.5854 77.8364 68.4933 77.6325C68.408 77.4028 68.3682 77.1588 68.376 76.914V74.8463H70.4V76.4741C70.3921 76.7 70.448 76.9237 70.5613 77.1193C70.6271 77.2131 70.7151 77.2889 70.8176 77.3401C70.92 77.3913 71.0336 77.4162 71.148 77.4125H71.3094C71.4473 77.3983 71.5785 77.3454 71.6875 77.2597C71.7965 77.1741 71.879 77.0593 71.9254 76.9287C71.9397 76.7432 71.9397 76.5569 71.9254 76.3714V75.5355C71.9119 75.2317 71.8042 74.9396 71.6173 74.6997C71.3611 74.3901 71.0764 74.1053 70.7667 73.8491L70.5907 73.6585C69.8895 73.1267 69.2758 72.4884 68.772 71.7668C68.4738 71.2194 68.3317 70.6004 68.3613 69.9777C68.3378 69.4329 68.4433 68.8903 68.6693 68.3941C68.8341 68.0624 69.088 67.7831 69.4026 67.5875C69.6385 67.4512 69.8896 67.3429 70.1506 67.2649C70.4922 67.1882 70.8421 67.1538 71.1921 67.1622C71.8565 67.1016 72.523 67.2504 73.0986 67.5875C73.3593 67.7965 73.5614 68.0692 73.6853 68.3794C73.7958 68.6795 73.8456 68.9985 73.832 69.3179V70.975H71.9401V69.3765C71.9529 69.1684 71.8845 68.9634 71.7494 68.8046C71.6828 68.7325 71.6007 68.6766 71.5092 68.641C71.4177 68.6054 71.3193 68.5912 71.2215 68.5994C71.0143 68.5984 70.8148 68.6772 70.6641 68.8193C70.5646 68.944 70.4912 69.0875 70.4484 69.2412C70.4055 69.3949 70.3941 69.5556 70.4147 69.7138C70.4004 70.1526 70.5015 70.5875 70.708 70.975C71.1216 71.5337 71.6159 72.0278 72.1746 72.4414C72.7766 72.8643 73.2774 73.4152 73.6413 74.0544C73.9194 74.6861 74.0451 75.3743 74.008 76.0634V76.2541C80.4996 70.2368 85.0251 62.4017 86.993 53.7725C88.9608 45.1433 88.2797 36.1213 85.0386 27.8852C81.7975 19.6491 76.147 12.582 68.8256 7.60717C61.5042 2.63235 52.8521 -0.01878 44 0.000100144ZM39.9227 24.9293C43.112 23.7512 46.5441 23.3833 49.9107 23.8588L42.5774 31.1909H31.9881C33.8777 28.2821 36.6942 26.0964 39.9814 24.9879L39.9227 24.9293ZM21.7947 23.9174H30.6974L27.5588 31.2496H18.656L21.7947 23.9174ZM29.8026 78.2777C29.1416 78.7832 28.3135 79.0191 27.4853 78.9377C27.0444 78.9543 26.6036 78.8998 26.18 78.7763C25.8934 78.6825 25.6392 78.5098 25.4467 78.2777C25.2714 78.0867 25.1279 77.8689 25.0214 77.6325C24.9268 77.4258 24.8816 77.1998 24.8893 76.9726V74.905H26.8548V76.4887C26.8375 76.7493 26.9098 77.0081 27.06 77.2219C27.2213 77.4272 27.3679 77.5005 27.7786 77.4712C27.9171 77.4588 28.0492 77.4064 28.1585 77.3205C28.2679 77.2346 28.3498 77.1189 28.3947 76.9873C28.4163 76.8022 28.4163 76.6152 28.3947 76.43V75.5795C28.3824 75.2823 28.2802 74.9959 28.1014 74.7583C27.7772 74.389 27.4293 74.0413 27.06 73.7172C26.3626 73.1811 25.7496 72.5433 25.2414 71.8254C24.95 71.2754 24.8083 70.6585 24.8307 70.0365C24.8111 69.4904 24.9218 68.9476 25.1534 68.4527C25.3172 68.1249 25.5652 67.8466 25.872 67.6462C26.1071 67.5082 26.3584 67.3997 26.6201 67.3235C26.966 67.2431 27.321 67.2087 27.676 67.2209C28.3415 67.1407 29.0145 67.2908 29.5828 67.6462C29.8358 67.8538 30.0348 68.1197 30.1625 68.4211C30.2902 68.7225 30.3429 69.0503 30.3161 69.3765V71.0336H28.424V69.6405V69.5525C28.425 69.3049 28.3364 69.0654 28.1746 68.8779C28.12 68.8097 28.051 68.7546 27.9723 68.7165C27.8937 68.6785 27.8075 68.6585 27.7201 68.658C27.614 68.6444 27.5061 68.6574 27.4062 68.6958C27.3064 68.7342 27.2177 68.7967 27.148 68.8779C26.9617 69.1372 26.8733 69.4542 26.8986 69.7725C26.8814 70.2134 26.9883 70.6503 27.2068 71.0336C27.6157 71.5963 28.1106 72.0912 28.6734 72.5C29.2716 72.9272 29.7716 73.4771 30.1401 74.1131C30.4182 74.7447 30.5438 75.4329 30.5068 76.1221C30.5485 76.522 30.5076 76.9263 30.3865 77.3098C30.2653 77.6932 30.0665 78.0476 29.8026 78.351V78.2777ZM34.452 82.985H32.5014L33.4401 78.7323L30.8881 67.3969H33.0881L34.5548 75.8581L36.0215 67.3969H38.1334L34.452 82.985ZM43.5014 78.351C42.8333 78.8535 42.0017 79.0888 41.1693 79.0109C40.7284 79.0266 40.2879 78.9722 39.8641 78.8497C39.5717 78.7509 39.3092 78.5793 39.1014 78.351C38.9391 78.1561 38.8057 77.9388 38.7054 77.7058C38.6285 77.4943 38.5888 77.271 38.5881 77.0459V74.9783H40.5534V76.606C40.5438 76.8321 40.5998 77.0562 40.7147 77.2512C40.7762 77.3492 40.8635 77.4285 40.967 77.4802C41.0704 77.5319 41.1861 77.5541 41.3014 77.5445H41.4627C41.6007 77.5303 41.7316 77.4773 41.8407 77.3917C41.9497 77.306 42.0322 77.1912 42.0786 77.0606C42.1072 76.8759 42.1072 76.688 42.0786 76.5033V75.8728C42.0935 75.5013 41.9853 75.1353 41.7707 74.8317C41.5145 74.5221 41.2297 74.2373 40.9201 73.9811L40.7441 73.7905C40.0428 73.2587 39.4292 72.6204 38.9254 71.8988C38.6272 71.3514 38.4851 70.7325 38.5147 70.1097C38.4911 69.5649 38.5966 69.0223 38.8227 68.526C38.9999 68.203 39.2512 67.9266 39.556 67.7195C39.787 67.5737 40.0394 67.4649 40.304 67.3969C40.648 67.3034 41.0035 67.2589 41.36 67.2649C42.015 67.2035 42.6727 67.3524 43.2373 67.6901C43.5058 67.9079 43.7215 68.1837 43.8681 68.4967C43.9658 68.8045 44.0055 69.1276 43.9854 69.4498V71.1069H42.0786V69.5086C42.0945 69.3935 42.0828 69.2764 42.0446 69.1667C42.0063 69.0571 41.9427 68.9581 41.8588 68.8779C41.7903 68.8202 41.7106 68.7775 41.6248 68.7523C41.5389 68.727 41.4487 68.7198 41.36 68.7313C41.2566 68.7247 41.1532 68.741 41.0569 68.779C40.9605 68.817 40.8736 68.8759 40.8026 68.9513C40.7031 69.076 40.6299 69.2195 40.5871 69.3731C40.5442 69.5268 40.5327 69.6876 40.5534 69.8458C40.5391 70.2846 40.6401 70.7195 40.8467 71.1069C41.2603 71.6656 41.7546 72.1598 42.3133 72.5733C42.9152 72.9963 43.4161 73.5472 43.78 74.1865C44.0581 74.8181 44.1837 75.5063 44.1467 76.1954C44.1904 76.5944 44.1519 76.998 44.0333 77.3814C43.9148 77.7648 43.7187 78.1197 43.4574 78.4243L43.5014 78.351ZM49.4119 79.0256H47.8574C47.3453 79.0689 46.8324 78.9509 46.3907 78.6883C46.1681 78.5396 45.9986 78.3239 45.9068 78.0724C45.8106 77.7492 45.7708 77.4119 45.7893 77.0753V68.922H44.6014V67.4555H45.7893V65.1679L47.828 64.4641V67.3969H49.2947V68.8633H47.828V76.4007C47.8253 76.5195 47.848 76.6375 47.8944 76.7469C47.9409 76.8562 48.0102 76.9545 48.0976 77.035C48.1851 77.1155 48.2886 77.1764 48.4015 77.2137C48.5143 77.251 48.6338 77.2638 48.752 77.2512H49.456L49.4119 79.0256ZM56.1441 69.8605V73.8638H52.0814V76.2541C52.0466 76.453 52.0466 76.6564 52.0814 76.8553C52.1387 77.0129 52.2405 77.1505 52.3746 77.2512C52.5812 77.3799 52.8207 77.4462 53.0641 77.4419C53.2013 77.4485 53.3383 77.4259 53.466 77.3755C53.5938 77.3252 53.7094 77.2482 53.8051 77.1497C53.9009 77.0513 53.9745 76.9335 54.0212 76.8043C54.068 76.6752 54.0866 76.5376 54.076 76.4007V74.9343H56.0707V76.2541C56.0664 76.7286 55.9668 77.1974 55.7774 77.6325C55.5577 78.0292 55.2191 78.3472 54.8094 78.5417C54.1788 78.8248 53.4905 78.9554 52.8 78.923C52.0239 78.9749 51.259 78.7164 50.6734 78.2044C50.4133 77.9473 50.2107 77.6378 50.0792 77.2965C49.9477 76.9552 49.8903 76.5899 49.9107 76.2247V71.0922C49.8191 70.0802 50.0175 69.0629 50.4828 68.1594C50.7296 67.834 51.0526 67.5742 51.4234 67.4029C51.7942 67.2316 52.2015 67.154 52.6094 67.1769H53.4308C53.9916 67.142 54.5497 67.2803 55.0294 67.5729C55.3454 67.7583 55.6042 68.0272 55.7774 68.35C55.9205 68.583 56.0152 68.8423 56.056 69.1126C56.056 69.3326 56.056 69.4792 56.056 69.6405L56.1441 69.8605ZM67.0707 78.7617H65.032V69.6405C65.0609 69.3833 64.9871 69.1251 64.8266 68.922C64.6505 68.7624 64.4189 68.6782 64.1814 68.6874C63.4627 68.6874 63.2427 68.9073 63.2427 69.9632V78.7617H61.1014V69.5231C61.1014 69.5231 61.1014 68.9513 60.676 68.7754C60.484 68.723 60.2814 68.723 60.0893 68.7754C59.9782 68.7859 59.8705 68.8186 59.7722 68.8715C59.674 68.9244 59.5873 68.9963 59.5173 69.0832C59.3645 69.2846 59.2914 69.5353 59.3119 69.7872V78.8203H57.2V67.3529H59.18V68.5847L59.4147 68.1887C59.5457 67.9874 59.7036 67.8048 59.884 67.6462C60.0866 67.4784 60.3208 67.3531 60.5727 67.2775C60.8247 67.2019 61.0892 67.1777 61.3506 67.2063H61.4387C61.7466 67.1979 62.0509 67.2739 62.3187 67.4262C62.6596 67.6573 62.9248 67.9838 63.0814 68.3647C63.2783 67.947 63.6085 67.6065 64.0201 67.3969C64.2892 67.2638 64.5851 67.1935 64.8854 67.1916H65.0467C65.4182 67.1954 65.7823 67.2966 66.1026 67.4849C66.3996 67.6527 66.6476 67.8953 66.8214 68.1887C67.0024 68.5419 67.0882 68.9362 67.0707 69.3326V78.7617ZM69.8574 58.4664H33.1467L28.7467 48.5827C27.456 45.8405 26.708 43.9195 25.256 43.9195H21.9853L15.7081 58.4664H6.80538L16.28 36.646H25.08C30.7267 36.646 32.868 38.567 35.3467 43.9781L41.976 58.2464L45.2907 50.3717H73.6413L69.8574 58.4664ZM75.6215 36.6313C73.9935 40.356 71.9547 43.9634 67.9947 43.9634H47.9746C49.544 40.0041 53.152 36.6313 56.6427 36.6313H65.076C65.8449 36.5466 66.5779 36.2607 67.201 35.8024C67.8241 35.3442 68.3155 34.7298 68.6254 34.0211C69.3294 32.3934 68.8014 31.0883 66.9387 31.0883H53.3867L56.4667 23.7562H76.2667C78.716 23.7562 80.5787 25.3399 78.1294 31.0883L75.6215 36.6313Z" fill="#FD0000"/>
</svg>
