<svg width="325" height="630" viewBox="0 0 325 630" fill="none" xmlns="http://www.w3.org/2000/svg">
<g filter="url(#filter0_d_12008_64691)">
<path d="M32 421.4C32 428.342 36.4768 434.492 43.083 436.626L240.083 500.245C250.415 503.582 261 495.877 261 485.019V304H32V421.4Z" fill="white"/>
<path d="M32.5 421.4C32.5 428.125 36.8369 434.083 43.2366 436.15L240.237 499.769C250.246 503.002 260.5 495.538 260.5 485.019V304.5H32.5V421.4Z" stroke="#A4ABB5"/>
</g>
<path d="M32 94.2323C32 87.4984 36.2163 81.4851 42.5471 79.1902L239.547 7.77676C249.979 3.99499 261 11.7223 261 22.8189V308H32V94.2323Z" fill="#373A25"/>
<path d="M65.968 130.264C65.968 132.616 64.4 133.904 61.488 133.904H57.512V139.896H61.768C63.392 139.896 64.792 139.728 65.968 139.336V167H72.52V130.264H65.968ZM85.0041 167.672C87.4121 167.672 88.9801 166.048 88.9801 163.696C88.9801 161.4 87.3561 159.776 85.0041 159.776C82.6521 159.776 81.0281 161.4 81.0281 163.696C81.0281 166.048 82.6521 167.672 85.0041 167.672Z" fill="#D9E670"/>
<rect x="157" y="332" width="80" height="80" rx="15" fill="white"/>
<g clip-path="url(#clip0_12008_64691)">
<path d="M213.263 355.118V356.892C212.77 356.202 211.982 355.758 211.095 355.758H196.656C195.917 355.758 195.276 355.463 194.784 354.97C194.291 354.477 193.995 353.837 193.995 353.097C193.995 352.161 193.502 351.373 192.812 350.88H209.025C211.391 350.929 213.263 352.802 213.263 355.118Z" fill="#E30513"/>
<path d="M208.185 390.303H177.879C174.823 390.303 172.359 387.79 172.359 384.735V355.414C172.359 352.703 174.577 350.486 177.287 350.486H191.43C191.972 350.486 192.465 350.634 192.859 350.929C193.549 351.373 194.042 352.21 194.042 353.097C194.042 353.837 194.338 354.477 194.831 354.97C195.323 355.463 195.964 355.759 196.703 355.759H211.142C212.029 355.759 212.817 356.202 213.31 356.892C213.606 357.335 213.754 357.828 213.754 358.37V360.785" stroke="#E30513" stroke-width="1.97115" stroke-miterlimit="10" stroke-linecap="round" stroke-linejoin="round"/>
<path d="M217.305 389.515L201.438 378.279L217.65 366.304" stroke="#E30513" stroke-width="1.97115" stroke-miterlimit="10" stroke-linecap="round" stroke-linejoin="round"/>
<path d="M208.337 378.279C208.337 382.073 205.233 385.178 201.438 385.178C197.644 385.178 194.539 382.073 194.539 378.279C194.539 374.484 197.644 371.38 201.438 371.38C205.233 371.429 208.337 374.484 208.337 378.279Z" fill="white"/>
<path d="M201.438 385.178C205.248 385.178 208.337 382.089 208.337 378.279C208.337 374.469 205.248 371.38 201.438 371.38C197.628 371.38 194.539 374.469 194.539 378.279C194.539 382.089 197.628 385.178 201.438 385.178Z" stroke="#E30513" stroke-width="1.97115" stroke-miterlimit="10" stroke-linecap="round" stroke-linejoin="round"/>
<path d="M221.642 366.501C221.642 368.916 219.72 370.838 217.305 370.838C214.891 370.838 212.969 368.916 212.969 366.501C212.969 364.086 214.891 362.165 217.305 362.165C219.72 362.165 221.642 364.136 221.642 366.501Z" fill="white"/>
<path d="M217.305 370.838C219.7 370.838 221.642 368.896 221.642 366.501C221.642 364.106 219.7 362.165 217.305 362.165C214.91 362.165 212.969 364.106 212.969 366.501C212.969 368.896 214.91 370.838 217.305 370.838Z" stroke="#E30513" stroke-width="1.97115" stroke-miterlimit="10" stroke-linecap="round" stroke-linejoin="round"/>
<path d="M221.642 389.515C221.642 391.929 219.72 393.851 217.305 393.851C214.891 393.851 212.969 391.929 212.969 389.515C212.969 387.1 214.891 385.178 217.305 385.178C219.72 385.178 221.642 387.1 221.642 389.515Z" fill="white"/>
<path d="M217.305 393.851C219.7 393.851 221.642 391.91 221.642 389.515C221.642 387.12 219.7 385.178 217.305 385.178C214.91 385.178 212.969 387.12 212.969 389.515C212.969 391.91 214.91 393.851 217.305 393.851Z" stroke="#E30513" stroke-width="1.97115" stroke-miterlimit="10" stroke-linecap="round" stroke-linejoin="round"/>
</g>
<defs>
<filter id="filter0_d_12008_64691" x="-32" y="304" width="357" height="325.031" filterUnits="userSpaceOnUse" color-interpolation-filters="sRGB">
<feFlood flood-opacity="0" result="BackgroundImageFix"/>
<feColorMatrix in="SourceAlpha" type="matrix" values="0 0 0 0 0 0 0 0 0 0 0 0 0 0 0 0 0 0 127 0" result="hardAlpha"/>
<feOffset dy="64"/>
<feGaussianBlur stdDeviation="32"/>
<feComposite in2="hardAlpha" operator="out"/>
<feColorMatrix type="matrix" values="0 0 0 0 0 0 0 0 0 0 0 0 0 0 0 0 0 0 0.1 0"/>
<feBlend mode="normal" in2="BackgroundImageFix" result="effect1_dropShadow_12008_64691"/>
<feBlend mode="normal" in="SourceGraphic" in2="effect1_dropShadow_12008_64691" result="shape"/>
</filter>
<clipPath id="clip0_12008_64691">
<rect width="51.25" height="45.3365" fill="white" transform="translate(171.375 349.5)"/>
</clipPath>
</defs>
</svg>
