<svg width="48" height="88" viewBox="0 0 48 88" fill="none" xmlns="http://www.w3.org/2000/svg">
<path d="M0 24.126C0 21.1253 1.82811 18.4274 4.61504 17.3151L37.9485 4.01161C42.7647 2.08944 48 5.63688 48 10.8225V77.6435C48 82.6998 43.0014 86.2377 38.2327 84.5564L4.89275 72.8019C1.96093 71.7683 0 68.9977 0 65.889V24.126Z" fill="#373A25"/>
<path d="M17.874 34.3521H21.7349V56H17.874V39.6981C17.181 39.9291 16.356 40.0281 15.399 40.0281H12.891V36.4971H15.234C16.95 36.4971 17.874 35.7381 17.874 34.3521ZM29.0916 56.396C27.7056 56.396 26.7486 55.439 26.7486 54.053C26.7486 52.7 27.7056 51.743 29.0916 51.743C30.4776 51.743 31.4346 52.7 31.4346 54.053C31.4346 55.439 30.5106 56.396 29.0916 56.396Z" fill="#D9E670"/>
</svg>
