<svg width="48" height="88" viewBox="0 0 48 88" fill="none" xmlns="http://www.w3.org/2000/svg">
<path d="M0 24.126C0 21.1253 1.82811 18.4274 4.61504 17.3151L37.9485 4.01161C42.7647 2.08944 48 5.63688 48 10.8225V77.6435C48 82.6998 43.0014 86.2377 38.2327 84.5564L4.89275 72.8019C1.96093 71.7683 0 68.9977 0 65.889V24.126Z" fill="#351625"/>
<path d="M27.9719 37.8501L22.6589 42.7341C26.2229 43.1301 28.3679 45.4071 28.3679 48.938V49.598C28.3679 53.789 25.4639 56.396 20.778 56.396C15.993 56.396 13.155 53.987 13.155 49.961V49.301H16.983V49.961C16.983 51.842 18.303 52.832 20.778 52.832C23.1209 52.832 24.5069 51.71 24.5069 49.664V49.004C24.5069 47.024 23.0879 45.9681 20.58 45.9681H17.412V42.9651L22.9559 37.8501H13.617V34.3521H27.9719V37.8501ZM33.4099 56.396C32.0239 56.396 31.0669 55.439 31.0669 54.053C31.0669 52.7 32.0239 51.743 33.4099 51.743C34.7959 51.743 35.7529 52.7 35.7529 54.053C35.7529 55.439 34.8289 56.396 33.4099 56.396Z" fill="#F00250"/>
</svg>
