<svg width="229" height="507" viewBox="0 0 229 507" fill="none" xmlns="http://www.w3.org/2000/svg">
<path d="M0.5 421.4C0.5 428.125 4.83685 434.083 11.2366 436.15L208.237 499.769C218.246 503.002 228.5 495.538 228.5 485.019V304.5H0.5V421.4Z" fill="white" stroke="#A4ABB5"/>
<path d="M0 94.2323C0 87.4984 4.21631 81.4851 10.5471 79.1902L207.547 7.77676C217.979 3.99499 229 11.7223 229 22.8189V308H0V94.2323Z" fill="#351625"/>
<path d="M51.104 136.2L42.088 144.488C48.136 145.16 51.776 149.024 51.776 155.016V156.136C51.776 163.248 46.848 167.672 38.896 167.672C30.776 167.672 25.96 163.584 25.96 156.752V155.632H32.456V156.752C32.456 159.944 34.696 161.624 38.896 161.624C42.872 161.624 45.224 159.72 45.224 156.248V155.128C45.224 151.768 42.816 149.976 38.56 149.976H33.184V144.88L42.592 136.2H26.744V130.264H51.104V136.2ZM60.3322 167.672C57.9802 167.672 56.3562 166.048 56.3562 163.696C56.3562 161.4 57.9802 159.776 60.3322 159.776C62.6842 159.776 64.3082 161.4 64.3082 163.696C64.3082 166.048 62.7402 167.672 60.3322 167.672Z" fill="#F00250"/>
<rect x="125" y="332" width="80" height="80" rx="15" fill="white"/>
<g clip-path="url(#clip0_12011_64693)">
<path d="M181.263 355.118V356.892C180.77 356.202 179.982 355.758 179.095 355.758H164.656C163.917 355.758 163.276 355.463 162.784 354.97C162.291 354.477 161.995 353.837 161.995 353.097C161.995 352.161 161.502 351.373 160.812 350.88H177.025C179.391 350.929 181.263 352.802 181.263 355.118Z" fill="#E30513"/>
<path d="M176.185 390.303H145.879C142.823 390.303 140.359 387.79 140.359 384.734V355.413C140.359 352.703 142.577 350.486 145.287 350.486H159.43C159.972 350.486 160.465 350.633 160.859 350.929C161.549 351.373 162.042 352.21 162.042 353.097C162.042 353.837 162.338 354.477 162.831 354.97C163.323 355.463 163.964 355.758 164.703 355.758H179.142C180.029 355.758 180.817 356.202 181.31 356.892C181.606 357.335 181.754 357.828 181.754 358.37V360.785" stroke="#E30513" stroke-width="1.97115" stroke-miterlimit="10" stroke-linecap="round" stroke-linejoin="round"/>
<path d="M185.305 389.515L169.438 378.279L185.65 366.304" stroke="#E30513" stroke-width="1.97115" stroke-miterlimit="10" stroke-linecap="round" stroke-linejoin="round"/>
<path d="M176.337 378.279C176.337 382.073 173.233 385.178 169.438 385.178C165.644 385.178 162.539 382.073 162.539 378.279C162.539 374.484 165.644 371.38 169.438 371.38C173.233 371.429 176.337 374.484 176.337 378.279Z" fill="white"/>
<path d="M169.438 385.178C173.248 385.178 176.337 382.089 176.337 378.279C176.337 374.469 173.248 371.38 169.438 371.38C165.628 371.38 162.539 374.469 162.539 378.279C162.539 382.089 165.628 385.178 169.438 385.178Z" stroke="#E30513" stroke-width="1.97115" stroke-miterlimit="10" stroke-linecap="round" stroke-linejoin="round"/>
<path d="M189.642 366.501C189.642 368.916 187.72 370.838 185.305 370.838C182.891 370.838 180.969 368.916 180.969 366.501C180.969 364.086 182.891 362.165 185.305 362.165C187.72 362.165 189.642 364.136 189.642 366.501Z" fill="white"/>
<path d="M185.305 370.838C187.7 370.838 189.642 368.896 189.642 366.501C189.642 364.106 187.7 362.165 185.305 362.165C182.91 362.165 180.969 364.106 180.969 366.501C180.969 368.896 182.91 370.838 185.305 370.838Z" stroke="#E30513" stroke-width="1.97115" stroke-miterlimit="10" stroke-linecap="round" stroke-linejoin="round"/>
<path d="M189.642 389.515C189.642 391.929 187.72 393.851 185.305 393.851C182.891 393.851 180.969 391.929 180.969 389.515C180.969 387.1 182.891 385.178 185.305 385.178C187.72 385.178 189.642 387.1 189.642 389.515Z" fill="white"/>
<path d="M185.305 393.851C187.7 393.851 189.642 391.91 189.642 389.515C189.642 387.12 187.7 385.178 185.305 385.178C182.91 385.178 180.969 387.12 180.969 389.515C180.969 391.91 182.91 393.851 185.305 393.851Z" stroke="#E30513" stroke-width="1.97115" stroke-miterlimit="10" stroke-linecap="round" stroke-linejoin="round"/>
</g>
<defs>
<clipPath id="clip0_12011_64693">
<rect width="51.25" height="45.3365" fill="white" transform="translate(139.375 349.5)"/>
</clipPath>
</defs>
</svg>
