<svg width="229" height="507" viewBox="0 0 229 507" fill="none" xmlns="http://www.w3.org/2000/svg">
<path d="M0.5 421.4C0.5 428.125 4.83685 434.083 11.2366 436.15L208.237 499.769C218.246 503.002 228.5 495.538 228.5 485.019V304.5H0.5V421.4Z" fill="white" stroke="#A4ABB5"/>
<path d="M0 94.2323C0 87.4984 4.21631 81.4851 10.5471 79.1902L207.547 7.77676C217.979 3.99499 229 11.7223 229 22.8189V308H0V94.2323Z" fill="#4D1806"/>
<path d="M42.76 154.176L35.76 161.12H51.44V167H26.856V161.176L37.552 150.592C42.928 145.272 44.104 143.536 44.104 140.96V140.4C44.104 137.432 42.032 135.64 38.504 135.64C34.976 135.64 32.904 137.544 32.904 140.848V142.024H26.408V140.736C26.408 133.792 30.944 129.592 38.504 129.592C46.064 129.592 50.6 133.68 50.6 140.4V140.96C50.6 144.992 48.584 148.408 42.76 154.176ZM61.3166 167.672C58.9646 167.672 57.3406 166.048 57.3406 163.696C57.3406 161.4 58.9646 159.776 61.3166 159.776C63.6686 159.776 65.2926 161.4 65.2926 163.696C65.2926 166.048 63.7246 167.672 61.3166 167.672Z" fill="#FF5031"/>
<rect x="125" y="332" width="80" height="80" rx="15" fill="white"/>
<g clip-path="url(#clip0_12011_64692)">
<path d="M163.688 390.702H144.125C142.28 390.702 140.921 388.905 141.504 387.109L149.465 361.575C149.805 360.41 150.873 359.634 152.086 359.634H178.737C179.95 359.634 181.018 360.459 181.358 361.624L183.057 367.352" stroke="#E30513" stroke-width="1.45631" stroke-miterlimit="10" stroke-linecap="round" stroke-linejoin="round"/>
<path d="M170.234 359.634L173.681 376.721" stroke="#E30513" stroke-width="1.45631" stroke-miterlimit="10" stroke-linecap="round" stroke-linejoin="round"/>
<path d="M160.138 359.634L154.75 390.702" stroke="#E30513" stroke-width="1.45631" stroke-miterlimit="10" stroke-linecap="round" stroke-linejoin="round"/>
<path d="M147.227 368.663H181.741" stroke="#E30513" stroke-width="1.45631" stroke-miterlimit="10" stroke-linecap="round" stroke-linejoin="round"/>
<path d="M143.734 379.828H170.579" stroke="#E30513" stroke-width="1.45631" stroke-miterlimit="10" stroke-linecap="round" stroke-linejoin="round"/>
<path d="M165.283 350.75C161.011 350.75 157.516 354.245 157.516 358.517C157.516 362.789 165.283 375.507 165.283 375.507C165.283 375.507 173.05 362.837 173.05 358.517C173.05 354.245 169.554 350.75 165.283 350.75ZM165.283 361.867C163.486 361.867 162.03 360.41 162.03 358.614C162.03 356.818 163.486 355.362 165.283 355.362C167.079 355.362 168.535 356.818 168.535 358.614C168.535 360.459 167.079 361.867 165.283 361.867Z" fill="#E30513"/>
<path d="M168.536 358.663C168.536 360.459 167.08 361.915 165.284 361.915C163.488 361.915 162.031 360.459 162.031 358.663C162.031 356.866 163.488 355.41 165.284 355.41C167.08 355.41 168.536 356.866 168.536 358.663Z" fill="white"/>
<path d="M168.536 358.663C168.536 360.459 167.08 361.915 165.284 361.915C163.488 361.915 162.031 360.459 162.031 358.663C162.031 356.866 163.488 355.41 165.284 355.41C167.08 355.41 168.536 356.866 168.536 358.663Z" stroke="#E30513" stroke-width="1.45631" stroke-miterlimit="10" stroke-linecap="round" stroke-linejoin="round"/>
<path d="M183.44 366.09L165.673 383.905L163.148 392.643L165.527 391.09" stroke="white" stroke-width="1.45631" stroke-miterlimit="10" stroke-linecap="round" stroke-linejoin="round"/>
<path d="M183.982 376.09L171.312 388.76L164.516 390.702L166.457 383.906L179.127 371.236L183.982 376.09Z" stroke="#E30513" stroke-width="1.45631" stroke-miterlimit="10" stroke-linecap="round" stroke-linejoin="round"/>
<path d="M179.125 371.235L184.271 366.09C185.29 365.07 186.941 365.07 187.96 366.09L189.125 367.255C190.144 368.274 190.144 369.925 189.125 370.944L183.979 376.09" fill="#E30513"/>
<path d="M179.125 371.235L184.271 366.09C185.29 365.07 186.941 365.07 187.96 366.09L189.125 367.255C190.144 368.274 190.144 369.925 189.125 370.944L183.979 376.09" stroke="#E30513" stroke-width="1.45631" stroke-miterlimit="10" stroke-linecap="round" stroke-linejoin="round"/>
<path d="M166.445 383.906L171.3 388.76" stroke="#E30513" stroke-width="1.45631" stroke-miterlimit="10" stroke-linecap="round" stroke-linejoin="round"/>
</g>
<defs>
<clipPath id="clip0_12011_64692">
<rect width="50" height="42.6214" fill="white" transform="translate(140.625 350.75)"/>
</clipPath>
</defs>
</svg>
