<svg width="48" height="88" viewBox="0 0 48 88" fill="none" xmlns="http://www.w3.org/2000/svg">
<path d="M0 24.126C0 21.1253 1.82811 18.4274 4.61504 17.3151L37.9485 4.01161C42.7647 2.08944 48 5.63688 48 10.8225V77.6435C48 82.6998 43.0014 86.2377 38.2327 84.5564L4.89275 72.8019C1.96093 71.7683 0 68.9977 0 65.889V24.126Z" fill="#3A1837"/>
<path d="M28.0709 47.915H31.2389V51.512H28.0709V56H24.2429V51.512H13.551V47.915C15.465 43.6251 16.686 39.4671 17.379 34.3521H21.339V34.9461C20.646 39.6981 19.491 43.8561 17.808 47.915H24.2429V38.1471H28.0709V47.915ZM35.4402 56.396C34.0542 56.396 33.0972 55.439 33.0972 54.053C33.0972 52.7 34.0542 51.743 35.4402 51.743C36.8262 51.743 37.7832 52.7 37.7832 54.053C37.7832 55.439 36.8592 56.396 35.4402 56.396Z" fill="#BF22B0"/>
</svg>
