<svg width="229" height="507" viewBox="0 0 229 507" fill="none" xmlns="http://www.w3.org/2000/svg">
<path d="M0.5 421.4C0.5 428.125 4.83685 434.083 11.2366 436.15L208.237 499.769C218.246 503.002 228.5 495.538 228.5 485.019V304.5H0.5V421.4Z" fill="white" stroke="#A4ABB5"/>
<path d="M0 94.2323C0 87.4984 4.21631 81.4851 10.5471 79.1902L207.547 7.77676C217.979 3.99499 229 11.7223 229 22.8189V308H0V94.2323Z" fill="#3A1837"/>
<path d="M51.272 153.28H56.648V159.384H51.272V167H44.776V159.384H26.632V153.28C29.88 146 31.952 138.944 33.128 130.264H39.848V131.272C38.672 139.336 36.712 146.392 33.856 153.28H44.776V136.704H51.272V153.28ZM63.7775 167.672C61.4255 167.672 59.8015 166.048 59.8015 163.696C59.8015 161.4 61.4255 159.776 63.7775 159.776C66.1295 159.776 67.7535 161.4 67.7535 163.696C67.7535 166.048 66.1855 167.672 63.7775 167.672Z" fill="#BF22B0"/>
<rect x="45" y="332" width="80" height="80" rx="15" fill="white"/>
<g clip-path="url(#clip0_12011_64694)">
<path d="M109.997 382.7C109.997 373.5 102.547 366 93.2969 366C84.0969 366 76.5469 373.65 76.5469 382.85V389.05C76.5469 392.05 78.9969 394.5 81.9969 394.5H104.547C107.547 394.5 109.997 392.05 109.997 389.05V382.7Z" fill="#E30513"/>
<path d="M93.3 368.7C88.15 368.7 84 364.5 84 359.4C84 354.3 88.15 350.05 93.3 350.05C98.45 350.05 102.6 354.25 102.6 359.35C102.6 364.45 98.4 368.7 93.3 368.7Z" fill="#E30513"/>
<path d="M93.3031 351.05C97.9031 351.05 101.603 354.8 101.603 359.35C101.603 363.9 97.8531 367.65 93.3031 367.65C88.7031 367.65 85.0031 363.9 85.0031 359.35C85.0031 354.8 88.7031 351.05 93.3031 351.05ZM93.3031 349.05C87.6031 349.05 82.9531 353.65 82.9531 359.35C82.9531 365.05 87.5531 369.65 93.2531 369.65C98.9531 369.65 103.553 365.05 103.553 359.35C103.553 353.65 99.0031 349.05 93.3031 349.05Z" fill="white"/>
<path d="M67.4516 394.45C64.9016 394.45 62.8516 392.4 62.8516 389.85V383.05C62.8516 374.05 70.1016 366.7 79.0516 366.7C88.0016 366.7 95.2516 374 95.2516 382.9V389.85C95.2516 392.4 93.2016 394.45 90.6516 394.45H67.4516Z" fill="white"/>
<path d="M79.0516 367.75C87.4516 367.75 94.2516 374.6 94.2516 382.95V389.9C94.2516 391.9 92.6516 393.5 90.6516 393.5H67.4516C65.4516 393.5 63.8516 391.9 63.8516 389.9V383.05C63.8516 379 65.4516 375.15 68.3016 372.25C71.2516 369.35 75.0516 367.75 79.0516 367.75ZM79.0516 365.75C69.6016 365.75 61.8516 373.6 61.8516 383.05V389.85C61.8516 392.95 64.3516 395.45 67.4516 395.45H90.6516C93.7516 395.45 96.2516 392.95 96.2516 389.85V382.95C96.2516 373.45 88.5516 365.75 79.0516 365.75Z" fill="#E30513"/>
<path d="M79.05 369.1C73.8 369.1 69.5 364.85 69.5 359.6C69.5 354.35 73.8 350.05 79.05 350.05C84.3 350.05 88.6 354.35 88.6 359.6C88.6 364.85 84.3 369.1 79.05 369.1Z" fill="white"/>
<path d="M79.05 351.05C83.75 351.05 87.6 354.9 87.6 359.6C87.6 364.3 83.75 368.15 79.05 368.15C74.35 368.15 70.5 364.3 70.5 359.6C70.5 354.9 74.35 351.05 79.05 351.05ZM79.05 349.05C73.25 349.05 68.5 353.75 68.5 359.6C68.5 365.4 73.2 370.15 79.05 370.15C84.85 370.15 89.6 365.45 89.6 359.6C89.6 353.75 84.85 349.05 79.05 349.05Z" fill="#E30513"/>
<path d="M69.5469 373.15C69.5469 375.8 67.3969 377.9 64.7969 377.9C62.1469 377.9 60.0469 375.75 60.0469 373.15C60.0469 370.5 62.1969 368.4 64.7969 368.4C67.3969 368.4 69.5469 370.55 69.5469 373.15Z" fill="#E30513"/>
</g>
<rect x="125" y="332" width="80" height="80" rx="15" fill="white"/>
<g clip-path="url(#clip1_12011_64694)">
<path d="M181.263 355.118V356.892C180.77 356.202 179.982 355.758 179.095 355.758H164.656C163.917 355.758 163.276 355.463 162.784 354.97C162.291 354.477 161.995 353.837 161.995 353.097C161.995 352.161 161.502 351.373 160.812 350.88H177.025C179.391 350.929 181.263 352.802 181.263 355.118Z" fill="#E30513"/>
<path d="M176.185 390.303H145.879C142.823 390.303 140.359 387.79 140.359 384.735V355.414C140.359 352.703 142.577 350.486 145.287 350.486H159.43C159.972 350.486 160.465 350.634 160.859 350.929C161.549 351.373 162.042 352.211 162.042 353.098C162.042 353.837 162.338 354.477 162.831 354.97C163.323 355.463 163.964 355.759 164.703 355.759H179.142C180.029 355.759 180.817 356.202 181.31 356.892C181.606 357.336 181.754 357.828 181.754 358.37V360.785" stroke="#E30513" stroke-width="1.97115" stroke-miterlimit="10" stroke-linecap="round" stroke-linejoin="round"/>
<path d="M185.305 389.515L169.438 378.279L185.65 366.304" stroke="#E30513" stroke-width="1.97115" stroke-miterlimit="10" stroke-linecap="round" stroke-linejoin="round"/>
<path d="M176.337 378.279C176.337 382.073 173.233 385.178 169.438 385.178C165.644 385.178 162.539 382.073 162.539 378.279C162.539 374.484 165.644 371.38 169.438 371.38C173.233 371.429 176.337 374.484 176.337 378.279Z" fill="white"/>
<path d="M169.438 385.178C173.248 385.178 176.337 382.089 176.337 378.279C176.337 374.469 173.248 371.38 169.438 371.38C165.628 371.38 162.539 374.469 162.539 378.279C162.539 382.089 165.628 385.178 169.438 385.178Z" stroke="#E30513" stroke-width="1.97115" stroke-miterlimit="10" stroke-linecap="round" stroke-linejoin="round"/>
<path d="M189.642 366.501C189.642 368.916 187.72 370.838 185.305 370.838C182.891 370.838 180.969 368.916 180.969 366.501C180.969 364.086 182.891 362.165 185.305 362.165C187.72 362.165 189.642 364.136 189.642 366.501Z" fill="white"/>
<path d="M185.305 370.838C187.7 370.838 189.642 368.896 189.642 366.501C189.642 364.106 187.7 362.165 185.305 362.165C182.91 362.165 180.969 364.106 180.969 366.501C180.969 368.896 182.91 370.838 185.305 370.838Z" stroke="#E30513" stroke-width="1.97115" stroke-miterlimit="10" stroke-linecap="round" stroke-linejoin="round"/>
<path d="M189.642 389.514C189.642 391.929 187.72 393.851 185.305 393.851C182.891 393.851 180.969 391.929 180.969 389.514C180.969 387.1 182.891 385.178 185.305 385.178C187.72 385.178 189.642 387.1 189.642 389.514Z" fill="white"/>
<path d="M185.305 393.851C187.7 393.851 189.642 391.909 189.642 389.514C189.642 387.119 187.7 385.178 185.305 385.178C182.91 385.178 180.969 387.119 180.969 389.514C180.969 391.909 182.91 393.851 185.305 393.851Z" stroke="#E30513" stroke-width="1.97115" stroke-miterlimit="10" stroke-linecap="round" stroke-linejoin="round"/>
</g>
<defs>
<clipPath id="clip0_12011_64694">
<rect width="50" height="46.4" fill="white" transform="translate(60 349.05)"/>
</clipPath>
<clipPath id="clip1_12011_64694">
<rect width="51.25" height="45.3365" fill="white" transform="translate(139.375 349.5)"/>
</clipPath>
</defs>
</svg>
