<svg width="48" height="88" viewBox="0 0 48 88" fill="none" xmlns="http://www.w3.org/2000/svg">
<path d="M0 24.126C0 21.1253 1.82811 18.4274 4.61504 17.3151L37.9485 4.01161C42.7647 2.08944 48 5.63688 48 10.8225V77.6435C48 82.6998 43.0014 86.2377 38.2327 84.5564L4.89275 72.8019C1.96093 71.7683 0 68.9977 0 65.889V24.126Z" fill="#4D1806"/>
<path d="M23.0549 48.443L18.93 52.535H28.1699V56H13.683V52.568L19.986 46.3311C23.1539 43.1961 23.8469 42.1731 23.8469 40.6551V40.3251C23.8469 38.5761 22.6259 37.5201 20.547 37.5201C18.468 37.5201 17.247 38.6421 17.247 40.5891V41.2821H13.419V40.5231C13.419 36.4311 16.092 33.9561 20.547 33.9561C25.0019 33.9561 27.6749 36.3651 27.6749 40.3251V40.6551C27.6749 43.0311 26.4869 45.0441 23.0549 48.443ZM33.99 56.396C32.604 56.396 31.647 55.439 31.647 54.053C31.647 52.7 32.604 51.743 33.99 51.743C35.376 51.743 36.333 52.7 36.333 54.053C36.333 55.439 35.409 56.396 33.99 56.396Z" fill="#FF5031"/>
</svg>
