<svg width="210" height="318" viewBox="0 0 210 318" fill="none" xmlns="http://www.w3.org/2000/svg">
<g filter="url(#filter0_d_12010_64691)">
<path d="M16 221.552C16 225.053 18.4758 228.067 21.911 228.746L171.244 258.269C175.778 259.165 180 255.696 180 251.075V171H16V221.552Z" fill="white"/>
<path d="M16.25 221.552C16.25 224.934 18.6414 227.844 21.9595 228.5L171.293 258.024C175.672 258.889 179.75 255.538 179.75 251.075V171.25H16.25V221.552Z" stroke="#A4ABB5" stroke-width="0.5"/>
</g>
<path d="M16 51.9059C16 48.6241 18.1805 45.7419 21.3385 44.8492L170.672 2.63678C175.352 1.31384 180 4.83006 180 9.69356V172H16V51.9059Z" fill="#373A25"/>
<defs>
<filter id="filter0_d_12010_64691" x="-13.3332" y="171" width="222.666" height="146.077" filterUnits="userSpaceOnUse" color-interpolation-filters="sRGB">
<feFlood flood-opacity="0" result="BackgroundImageFix"/>
<feColorMatrix in="SourceAlpha" type="matrix" values="0 0 0 0 0 0 0 0 0 0 0 0 0 0 0 0 0 0 127 0" result="hardAlpha"/>
<feOffset dy="29.3332"/>
<feGaussianBlur stdDeviation="14.6666"/>
<feComposite in2="hardAlpha" operator="out"/>
<feColorMatrix type="matrix" values="0 0 0 0 0 0 0 0 0 0 0 0 0 0 0 0 0 0 0.1 0"/>
<feBlend mode="normal" in2="BackgroundImageFix" result="effect1_dropShadow_12010_64691"/>
<feBlend mode="normal" in="SourceGraphic" in2="effect1_dropShadow_12010_64691" result="shape"/>
</filter>
</defs>
</svg>
