<svg width="24" height="24" viewBox="0 0 24 24" fill="none" xmlns="http://www.w3.org/2000/svg">
<circle cx="12" cy="12" r="6.5" stroke="#585F69"/>
<path d="M12 5.5C12.8477 5.5 13.7129 6.10584 14.3943 7.29832C15.0676 8.47666 15.5 10.1379 15.5 12C15.5 13.8621 15.0676 15.5233 14.3943 16.7017C13.7129 17.8942 12.8477 18.5 12 18.5C11.1523 18.5 10.2871 17.8942 9.60569 16.7017C8.93236 15.5233 8.5 13.8621 8.5 12C8.5 10.1379 8.93236 8.47666 9.60569 7.29832C10.2871 6.10584 11.1523 5.5 12 5.5Z" stroke="#585F69"/>
<path d="M5.5 12H18.5" stroke="#585F69"/>
<path d="M12 18.5L12 5.5" stroke="#585F69"/>
</svg>
