<svg width="48" height="48" viewBox="0 0 48 48" fill="none" xmlns="http://www.w3.org/2000/svg">
<g clip-path="url(#clip0_777_310)">
<path d="M48 23.996C48 28.742 46.5924 33.3813 43.9553 37.3275C41.3181 41.2736 37.5698 44.3492 33.1844 46.1654C28.799 47.9816 23.9734 48.4568 19.3179 47.5309C14.6623 46.6051 10.3859 44.3196 7.02947 40.9637C3.67301 37.6078 1.3872 33.3322 0.461155 28.6774C-0.46489 24.0226 0.0104237 19.1978 1.82693 14.8131C3.64343 10.4284 6.71955 6.68077 10.6663 4.04405C14.6131 1.40734 19.2533 0 24 0C30.3652 0 36.4697 2.52815 40.9706 7.02827C45.4715 11.5284 48 17.6319 48 23.996Z" fill="white"/>
<path d="M29.3441 37.4978C29.2394 37.4238 29.1116 37.3897 28.984 37.4018C28.8466 37.3906 28.7099 37.4305 28.6 37.5138C28.5294 37.5672 28.4739 37.6381 28.4388 37.7194C28.4038 37.8007 28.3904 37.8897 28.4 37.9777V39.3935H29.5281C29.5281 39.3935 29.5281 38.0577 29.5281 37.9777C29.5418 37.8893 29.5328 37.799 29.502 37.715C29.4712 37.6311 29.4196 37.5563 29.352 37.4978" fill="#FD0000"/>
<path d="M24 5.46239e-05C20.1842 -0.0024443 16.4228 0.90479 13.0278 2.64649C9.63286 4.38819 6.70218 6.91416 4.4789 10.0148C2.25563 13.1155 0.803837 16.7015 0.243992 20.4754C-0.315853 24.2493 0.0323605 28.1023 1.25976 31.7147C2.48717 35.3271 4.55838 38.5948 7.30156 41.2468C10.0447 43.8988 13.3809 45.8585 17.0331 46.9635C20.6854 48.0685 24.5485 48.2869 28.3021 47.6005C32.0556 46.9142 35.5914 45.3429 38.616 43.0169C38.405 43.0263 38.1939 42.9992 37.992 42.9369C37.8253 42.8803 37.6763 42.781 37.56 42.649C37.4777 42.5588 37.4102 42.4562 37.36 42.345C37.3134 42.2197 37.2917 42.0866 37.296 41.9531V40.8252H38.4V41.7131C38.3957 41.8364 38.4261 41.9584 38.488 42.0651C38.5238 42.1162 38.5719 42.1576 38.6277 42.1855C38.6836 42.2134 38.7456 42.227 38.808 42.225H38.896C38.9712 42.2173 39.0428 42.1884 39.1022 42.1417C39.1617 42.095 39.2067 42.0324 39.232 41.9611C39.2398 41.8599 39.2398 41.7583 39.232 41.6571V41.2012C39.2247 41.0355 39.1659 40.8762 39.064 40.7453C38.9242 40.5764 38.7689 40.4211 38.6 40.2813L38.504 40.1774C38.1215 39.8873 37.7868 39.5391 37.512 39.1455C37.3493 38.8469 37.2718 38.5093 37.288 38.1697C37.2751 37.8725 37.3327 37.5766 37.456 37.3059C37.5458 37.1249 37.6844 36.9726 37.856 36.8659C37.9846 36.7916 38.1216 36.7325 38.264 36.6899C38.4503 36.6481 38.6411 36.6293 38.832 36.634C39.1944 36.6009 39.558 36.682 39.872 36.8659C40.0141 36.9799 40.1244 37.1287 40.192 37.2979C40.2522 37.4615 40.2794 37.6355 40.272 37.8098V38.7136H39.24V37.8418C39.247 37.7282 39.2097 37.6164 39.136 37.5298C39.0997 37.4905 39.0549 37.46 39.005 37.4406C38.9551 37.4212 38.9014 37.4134 38.8481 37.4179C38.7351 37.4173 38.6262 37.4603 38.544 37.5378C38.4898 37.6058 38.4497 37.6841 38.4264 37.7679C38.403 37.8518 38.3967 37.9394 38.408 38.0257C38.4002 38.2651 38.4553 38.5023 38.568 38.7136C38.7936 39.0184 39.0632 39.2879 39.368 39.5135C39.6963 39.7442 39.9695 40.0446 40.168 40.3933C40.3197 40.7379 40.3882 41.1133 40.368 41.4892V41.5931C43.9088 38.311 46.3773 34.0373 47.4507 29.3305C48.5241 24.6236 48.1526 19.7025 46.3847 15.2101C44.6168 10.7177 41.5347 6.8629 37.5412 4.14936C33.5477 1.43583 28.8284 -0.0102436 24 5.46239e-05ZM21.776 13.5978C23.5156 12.9552 25.3877 12.7546 27.224 13.0139L23.224 17.0132H17.448C18.4787 15.4266 20.015 14.2344 21.808 13.6298L21.776 13.5978ZM11.888 13.0459H16.744L15.032 17.0452H10.176L11.888 13.0459ZM16.256 42.697C15.8954 42.9727 15.4437 43.1013 14.992 43.0569C14.7515 43.066 14.511 43.0363 14.28 42.9689C14.1237 42.9178 13.985 42.8235 13.88 42.697C13.7844 42.5927 13.7061 42.4739 13.648 42.345C13.5964 42.2322 13.5717 42.109 13.576 41.9851V40.8573H14.648V41.7211C14.6386 41.8633 14.678 42.0044 14.76 42.121C14.848 42.233 14.928 42.273 15.152 42.257C15.2275 42.2503 15.2995 42.2217 15.3592 42.1748C15.4188 42.128 15.4635 42.0648 15.488 41.9931C15.4998 41.8921 15.4998 41.7901 15.488 41.6891V41.2252C15.4813 41.0631 15.4256 40.9069 15.328 40.7773C15.1512 40.5758 14.9614 40.3862 14.76 40.2094C14.3796 39.917 14.0452 39.5691 13.768 39.1775C13.609 38.8775 13.5318 38.541 13.544 38.2017C13.5333 37.9039 13.5937 37.6078 13.72 37.3378C13.8094 37.1591 13.9447 37.0072 14.112 36.8979C14.2402 36.8226 14.3773 36.7635 14.52 36.7219C14.7087 36.6781 14.9024 36.6593 15.096 36.666C15.459 36.6222 15.8261 36.7041 16.136 36.8979C16.2741 37.0112 16.3826 37.1562 16.4522 37.3206C16.5219 37.485 16.5507 37.6638 16.536 37.8418V38.7456H15.504V37.9857V37.9377C15.5045 37.8027 15.4562 37.672 15.368 37.5698C15.3382 37.5326 15.3005 37.5025 15.2576 37.4818C15.2147 37.461 15.1677 37.4501 15.12 37.4498C15.0621 37.4424 15.0033 37.4495 14.9488 37.4704C14.8944 37.4914 14.846 37.5255 14.808 37.5698C14.7064 37.7112 14.6581 37.8841 14.672 38.0577C14.6626 38.2982 14.7208 38.5365 14.84 38.7456C15.0631 39.0526 15.333 39.3225 15.64 39.5455C15.9663 39.7785 16.2391 40.0784 16.44 40.4253C16.5918 40.7698 16.6603 41.1452 16.64 41.5211C16.6628 41.7393 16.6405 41.9598 16.5744 42.169C16.5084 42.3781 16.3999 42.5714 16.256 42.7369V42.697ZM18.792 45.2645H17.728L18.24 42.9449L16.848 36.762H18.048L18.848 41.3772L19.648 36.762H20.8L18.792 45.2645ZM23.728 42.7369C23.3636 43.011 22.91 43.1394 22.456 43.0969C22.2155 43.1054 21.9752 43.0758 21.744 43.0089C21.5845 42.955 21.4414 42.8614 21.328 42.7369C21.2395 42.6306 21.1667 42.5121 21.112 42.385C21.0701 42.2696 21.0484 42.1478 21.048 42.0251V40.8973H22.12V41.7851C22.1148 41.9084 22.1453 42.0307 22.208 42.137C22.2415 42.1905 22.2892 42.2337 22.3456 42.2619C22.402 42.2901 22.4651 42.3023 22.528 42.297H22.616C22.6912 42.2893 22.7627 42.2604 22.8222 42.2136C22.8816 42.1669 22.9266 42.1043 22.952 42.0331C22.9676 41.9323 22.9676 41.8298 22.952 41.7291V41.3852C22.9601 41.1825 22.9011 40.9829 22.784 40.8173C22.6442 40.6484 22.4889 40.4931 22.32 40.3534L22.224 40.2494C21.8415 39.9593 21.5068 39.6111 21.232 39.2176C21.0694 38.9189 20.9918 38.5813 21.008 38.2417C20.9952 37.9445 21.0527 37.6485 21.176 37.3778C21.2727 37.2016 21.4098 37.0509 21.576 36.9379C21.702 36.8584 21.8397 36.799 21.984 36.762C22.1716 36.711 22.3655 36.6867 22.56 36.6899C22.9173 36.6565 23.276 36.7377 23.584 36.9219C23.7304 37.0407 23.8481 37.1911 23.928 37.3619C23.9813 37.5297 24.003 37.706 23.992 37.8817V38.7856H22.952V37.9138C22.9606 37.851 22.9543 37.7871 22.9334 37.7273C22.9125 37.6675 22.8778 37.6135 22.832 37.5698C22.7947 37.5383 22.7512 37.515 22.7044 37.5012C22.6576 37.4875 22.6084 37.4836 22.56 37.4898C22.5036 37.4862 22.4472 37.4951 22.3946 37.5158C22.3421 37.5366 22.2947 37.5687 22.256 37.6098C22.2017 37.6778 22.1617 37.7561 22.1384 37.8399C22.115 37.9237 22.1088 38.0114 22.12 38.0977C22.1122 38.3371 22.1673 38.5743 22.28 38.7856C22.5056 39.0903 22.7752 39.3599 23.08 39.5855C23.4083 39.8162 23.6815 40.1167 23.88 40.4653C24.0317 40.8099 24.1002 41.1853 24.08 41.5612C24.1038 41.7788 24.0828 41.9989 24.0182 42.208C23.9535 42.4172 23.8465 42.6108 23.704 42.7769L23.728 42.7369ZM26.952 43.1049H26.104C25.8247 43.1285 25.545 43.0641 25.304 42.9209C25.1826 42.8398 25.0901 42.7221 25.04 42.585C24.9876 42.4087 24.9659 42.2247 24.976 42.0411V37.5938H24.328V36.7939H24.976V35.5461L26.088 35.1622V36.762H26.888V37.5618H26.088V41.6731C26.0865 41.7379 26.0989 41.8023 26.1242 41.8619C26.1496 41.9216 26.1874 41.9752 26.2351 42.0191C26.2828 42.063 26.3392 42.0962 26.4008 42.1166C26.4623 42.1369 26.5275 42.1439 26.592 42.137H26.976L26.952 43.1049ZM30.624 38.1057V40.2894H28.408V41.5931C28.389 41.7016 28.389 41.8126 28.408 41.9211C28.4393 42.007 28.4948 42.0821 28.568 42.137C28.6806 42.2072 28.8113 42.2434 28.944 42.241C29.0189 42.2447 29.0936 42.2323 29.1633 42.2048C29.233 42.1774 29.296 42.1354 29.3482 42.0817C29.4005 42.028 29.4406 41.9637 29.4661 41.8933C29.4916 41.8228 29.5018 41.7478 29.496 41.6731V40.8732H30.584V41.5931C30.5817 41.852 30.5273 42.1077 30.424 42.345C30.3042 42.5614 30.1195 42.7348 29.896 42.8409C29.5521 42.9954 29.1766 43.0666 28.8 43.0489C28.3767 43.0772 27.9594 42.9362 27.64 42.657C27.4981 42.5167 27.3876 42.3479 27.3159 42.1617C27.2442 41.9756 27.2129 41.7763 27.224 41.5771V38.7776C27.174 38.2255 27.2823 37.6707 27.536 37.1779C27.6707 37.0004 27.8469 36.8587 28.0491 36.7652C28.2514 36.6718 28.4735 36.6294 28.696 36.642H29.144C29.45 36.6229 29.7543 36.6983 30.016 36.8579C30.1884 36.9591 30.3295 37.1057 30.424 37.2818C30.5021 37.4089 30.5537 37.5504 30.576 37.6978C30.576 37.8178 30.576 37.8977 30.576 37.9857L30.624 38.1057ZM36.584 42.9609H35.472V37.9857C35.4877 37.8454 35.4475 37.7046 35.36 37.5938C35.2639 37.5068 35.1376 37.4609 35.008 37.4658C34.616 37.4658 34.496 37.5858 34.496 38.1617V42.9609H33.328V37.9217C33.328 37.9217 33.328 37.6098 33.096 37.5138C32.9912 37.4853 32.8807 37.4853 32.776 37.5138C32.7154 37.5196 32.6566 37.5374 32.603 37.5663C32.5494 37.5951 32.5021 37.6344 32.464 37.6818C32.3806 37.7916 32.3407 37.9283 32.352 38.0657V42.9929H31.2V36.7379H32.28V37.4098L32.408 37.1939C32.4795 37.084 32.5656 36.9845 32.664 36.8979C32.7745 36.8064 32.9022 36.7381 33.0396 36.6968C33.1771 36.6556 33.3213 36.6424 33.464 36.658H33.512C33.68 36.6534 33.846 36.6949 33.992 36.7779C34.1779 36.904 34.3226 37.0821 34.408 37.2898C34.5154 37.062 34.6955 36.8763 34.92 36.762C35.0668 36.6893 35.2282 36.651 35.392 36.65H35.48C35.6827 36.6521 35.8812 36.7072 36.056 36.8099C36.2179 36.9015 36.3532 37.0338 36.448 37.1939C36.5467 37.3865 36.5935 37.6016 36.584 37.8178V42.9609ZM38.104 31.8907H18.08L15.68 26.4997C14.976 25.0039 14.568 23.9561 13.776 23.9561H11.992L8.56802 31.8907H3.71201L8.87998 19.9887H13.68C16.76 19.9887 17.928 21.0365 19.28 23.9881L22.896 31.7707L24.704 27.4755H40.168L38.104 31.8907ZM41.248 19.9807C40.3601 22.0124 39.248 23.9801 37.088 23.9801H26.168C27.024 21.8204 28.992 19.9807 30.896 19.9807H35.496C35.9154 19.9345 36.3152 19.7786 36.6551 19.5286C36.995 19.2786 37.263 18.9435 37.432 18.557C37.816 17.6691 37.528 16.9572 36.512 16.9572H29.12L30.8 12.9579H41.6C42.936 12.9579 43.952 13.8218 42.616 16.9572L41.248 19.9807Z" fill="#FD0000"/>
</g>
<defs>
<clipPath id="clip0_777_310">
<rect width="48" height="48" fill="white"/>
</clipPath>
</defs>
</svg>
