<svg width="488" height="590" viewBox="0 0 488 590" fill="none" xmlns="http://www.w3.org/2000/svg">
<path d="M380 13H447C469.091 13 487 30.9086 487 53V429C487 451.091 469.091 469 447 469H53C30.9086 469 13 486.909 13 509V566M381 13C381 19.6274 375.627 25 369 25C362.373 25 357 19.6274 357 13C357 6.37258 362.373 1 369 1C375.627 1 381 6.37258 381 13ZM25 577C25 583.627 19.6274 589 13 589C6.37258 589 1 583.627 1 577C1 570.373 6.37258 565 13 565C19.6274 565 25 570.373 25 577Z" stroke="#E30513" stroke-width="2"/>
</svg>
