<svg width="977" height="1042" viewBox="0 0 977 1042" fill="none" xmlns="http://www.w3.org/2000/svg">
<path d="M964 23.9985V88.9837C964 111.075 946.092 128.984 924 128.984L41 128.985C18.9086 128.985 1.00007 146.893 1.00007 168.985L1 1001C0.999998 1023.09 18.9086 1041 41 1041L924 1041C946.092 1041 964 1023.09 964 1001V935.999M976 13C976 19.6274 970.628 25 964 25C957.373 25 952 19.6274 952 13C952 6.37258 957.373 1 964 1C970.628 1 976 6.37258 976 13ZM976 925C976 931.627 970.628 937 964 937C957.373 937 952 931.627 952 925C952 918.373 957.373 913 964 913C970.628 913 976 918.373 976 925Z" stroke="#E30513" stroke-width="2"/>
</svg>
